<?xml version="1.0" encoding="UTF-8"?><svg xmlns="http://www.w3.org/2000/svg" viewBox="0 0 668.19 642.27"><defs><style>.d{fill:#f9f8f8;}.e{fill:#fbf39e;}.f{fill:#efe9a5;}.g{fill:#333757;}.h{fill:#a9a874;}.i{fill:#bcba82;}.j{fill:#ccc991;}.k{fill:#cfcbda;}.l{fill:#ada6c1;}.m{fill:#e1dc9f;}.n{fill:#d6d298;}.o{fill:#1b1933;}.p{fill:#55597b;}.q{fill:#77cef3;}.r{fill:#829ba3;}</style></defs><g id="a"/><g id="b"><g id="c"><path class="e" d="M453.5,621.94c-5.34,7.76-13.06,13.12-19.76,19.51-1.82,1.74-4.19,.26-6.2-.16-25.39-5.27-50.75-10.67-76.13-15.99-40.92-8.57-81.88-16.98-122.78-25.69-48.88-10.41-97.69-21.14-146.57-31.59-26.33-5.62-52.72-10.93-79.08-16.38-.63-.13-1.23-.34-2.99-.84,8.28-5.62,15.85-10.75,23.42-15.89,5.99,1.29,11.98,2.61,17.99,3.86,7.16,1.5,14.33,2.94,21.5,4.4,7.01,1.43,14.17,2.35,20.99,4.4,6.52,1.96,14.46-.27,19.51,6.25,.05,.06,.65-.15,.83-.37,2.15-2.5,4.74-.98,6.98-.53,36.19,7.25,72.35,14.62,108.53,21.94,50.52,10.23,101.04,20.45,151.57,30.64,27.38,5.52,54.78,10.96,82.18,16.44Z"/><path class="h" d="M649.32,157.46c-4.65,5.25-9.29,10.5-13.94,15.76-75.63-.03-151.25-.06-226.88-.07-1.45,0-3.05-.37-4.12,1.12h-.03c-6.62-5.1-13.57-9.68-21.33-12.92,4.04-.7,8.44,1.12,13.22-1.94h-18.25c-1.92-.25-3.84-.5-5.76-.75-1.33-.46-2.66-.93-3.99-1.39,4.23-3.71,8.64-7.24,12.1-11.73,.94-.81,1.89-1.63,2.83-2.44,15.71,.07,31.42,.19,47.13,.2,42.79,.03,85.58,.19,128.37-.07,22.12-.13,44.24-.84,66.36-.68,14.1,.1,28.21,.02,43.14,.02-5.93,4.57-11.33,8.73-16.73,12.88-6.32-.28-12.61,.51-18.89,.67-26.44,.68-52.89,.44-79.34,.86-35.1,.56-70.2,1.24-105.31,1.31-10.82,.02-21.65-.09-32.47,.11-4.12,.08-8.22,.86-12.33,1.32,4.5,2.7,8.82,.46,13.19,.54,36.11,.67,72.21-.78,108.31-1.05,13.29-.1,26.58-.19,39.88-.61,28.25-.89,56.56,.01,84.83-1.15Z"/><path class="e" d="M25.35,533.73c9.06-7,18.12-14.01,27.18-21.01,23.52,4.39,47.03,8.82,70.57,13.11,4.65,.85,2.81,2.82,1.26,4.97l-.12,.13,.14-.11c3.2-3.44,7.03-3.43,11.36-2.61,29.51,5.58,59.06,10.99,88.59,16.46,8.34,11.38,17.73,21.64,30,28.98,2.07,1.24,4.78,1.57,6.09,3.97l-.1,3.56c-78.33-15.82-156.66-31.64-234.99-47.46Z"/><path class="j" d="M594.46,269.14c-1.09,5.69-2.18,11.39-3.27,17.08-16.79,.13-33.5-1.51-50.26-2.09-9.29-.32-18.59-.65-27.87-1.14-22.53-1.2-45.04-2.54-67.57-3.76-12.75-.69-25.51-1.28-38.27-1.91-2.62-8.87-8.98-11.74-15.87-7.17-2.86,1.24-3.5,4.46-5.66,6.33-16.7-.8-33.41-1.61-50.11-2.41-.29-5.35,.52-10.62,1.12-15.9,1.97,.19,4.01,.11,5.91,.6,12.52,3.24,25.1,4.17,37.83,1.33,13.43,.66,26.85,1.58,40.29,1.92,16.77,.43,33.52,1.33,50.28,1.95,16.6,.61,33.19,1.21,49.78,2.04,19.58,.99,39.18,1.45,58.77,2.17,4.97,.18,10-.39,14.89,.96Z"/><path class="e" d="M480.59,592.69c-1.73,4.06-5.24,6.72-8.07,9.85-5.61,6.22-10.96,12.71-17.3,18.24-22.92-4.68-45.84-9.34-68.76-14.04-27.12-5.55-54.23-11.13-81.34-16.7,1.06-1.35,2.58-1.25,4.07-1.34,18.86-1.11,36.85-5.65,53.89-13.85,1.47-.71,3.16-1.26,3.25-3.33,13.42,2.41,26.85,4.74,40.24,7.24,24.68,4.59,49.34,9.28,74.01,13.93Z"/><path class="e" d="M54.68,510.88c7.93-6.83,15.85-13.66,23.78-20.48,24.4,4.17,48.79,8.34,73.7,12.6-4.58,4.92-8.71,9.36-12.84,13.8-.33,.34-.66,.67-.99,1.01l-.15,.19,.19-.14,1-.99c3.78-1.68,5.21-6.78,10.04-6.94-.1,.43-.21,.87-.31,1.3,.26,0,.64,.1,.77-.04,.63-.63,.18-1.02-.38-1.36,2.89-1.22,3.79-4.4,6.11-6.19,.79,2.39,1.88,.21,2.83,.19,1.44,.34,2.87,.75,4.33,1.01,15.15,2.68,30.3,5.33,45.46,8,3.83,10.2,8.66,19.91,14.52,29.1-2.14,.85-4.22-.02-6.25-.4-40.44-7.52-80.89-15.05-121.31-22.7-13.52-2.56-27.16-4.53-40.52-7.93Z"/><path class="j" d="M600.53,247.96c-1.78,6.35-3.56,12.71-5.35,19.06-10.87-1.71-21.87-.96-32.8-1.6-15.9-.93-31.85-1.35-47.77-2.1-27.04-1.28-54.1-2.11-81.15-3.08-14.76-.53-29.54-.7-44.27-2.05,8.65-4.51,17.22-9.14,24.17-16.18,9.95,.79,19.94,.67,29.89,.92,26.42,.68,52.84,1.26,79.26,2.14,23.44,.78,46.9,.86,70.35,1.2,2.7,.04,5.32,.22,7.67,1.7Z"/><path class="n" d="M590.17,288.26c-.99,6.65-1.98,13.29-2.98,19.94-9.77-.42-19.56-.68-29.32-1.28-24.63-1.5-49.25-3.18-73.88-4.7-8.94-.55-17.9-.72-26.83-1.26-19.84-1.2-39.67-2.52-59.5-3.78,.89-2.02,1.77-4.04,2.66-6.06,2.42-3.94,5.37-7.57,6.98-11.99,1.8,.31,3.59,.83,5.39,.88,20.73,.57,41.42,1.88,62.12,2.99,12.75,.69,25.51,1.26,38.26,1.94,25.69,1.38,51.4,2.24,77.1,3.31Z"/><path class="h" d="M634.3,174.41c-3.39,5.19-6.78,10.39-10.18,15.58-2.33,.04-4.65,.11-6.98,.11-64.02,0-128.03,0-192.05,.01-2.49,0-4.98,.14-7.47,.21-3.31-6.27-8.54-10.96-13.27-16.05h.03c15.49,0,30.99,.04,46.48,.05,61.15,.03,122.29,.06,183.44,.09Z"/><path class="i" d="M614.36,209.28c-2.41,6.33-4.81,12.66-7.22,19-8.96-.37-17.93-.23-26.9-.88-12.42-.9-24.92-.56-37.39-.9-27.76-.76-55.52-1.15-83.27-2.21-12.12-.47-24.29,.55-36.38-1.02-.14-5.02,2.37-10.03,.06-15.06l.09-1.93c12.95,.42,25.9,.15,38.88,.7,22.58,.96,45.22,.62,67.83,.99,28.1,.46,56.2,1.14,84.31,1.3Z"/><path class="n" d="M586.16,310.2c.09,6.38-1.22,12.6-2.12,18.87-17.36-1.29-34.71-2.64-52.08-3.85-20.02-1.39-40.05-2.69-60.08-3.99-26.82-1.74-53.63-3.45-80.45-5.18,1.52-5.8,2.88-11.65,5.77-16.99,14.57,.97,29.14,2.04,43.72,2.9,24.37,1.44,48.75,2.72,73.12,4.1,24.04,1.36,48.08,2.75,72.12,4.13Z"/><path class="e" d="M504.27,564.11c-7.08,9.27-14.12,18.57-22.07,27.13-11.26-2.16-22.51-4.33-33.77-6.47-25.77-4.9-51.54-9.78-77.32-14.67,.41-.88,.57-2.13,1.26-2.59,9.38-6.23,16.88-14.58,25.21-22,1.65,.14,3.33,.16,4.96,.43,25.16,4.28,50.34,8.43,75.45,12.99,8.77,1.59,17.75,2.22,26.26,5.17Z"/><path class="r" d="M504.27,564.11c-8.51-2.95-17.49-3.57-26.26-5.17-25.11-4.56-50.29-8.71-75.45-12.99-1.63-.28-3.31-.29-4.96-.43-4.63-1.44-9.43-1.98-14.21-2.61-4.23-.73-8.59-1.04-12.65-2.31-4.19-1.31-6,.51-7.63,3.81-3.1,6.26-7.22,11.79-12.33,16.6-1.36,1.28-3.28,2.22-3.74,4.37,2.04,1.05,4.14,1.42,6.31,1.45,5.93,1.09,11.85,2.18,17.78,3.27,25.77,4.89,51.55,9.77,77.32,14.67,11.26,2.14,22.51,4.31,33.77,6.47-.54,.48-1.08,.96-1.62,1.44-24.67-4.65-49.33-9.33-74.01-13.93-13.4-2.49-26.83-4.83-40.24-7.24-3.23-.65-6.57-.97-9.66-2.01-8.32-2.79-15.27-.93-22.77,3.65-9.72,5.94-20.85,8.77-32.45,8.82,1.57-2.47,4.43-3.45,6.36-5.43,5.31-5.43,13.08-9.26,12.57-18.63,3.31-1.73,6.63-3.46,9.94-5.19,7.4,3.12,10.53,2.8,14.58-2.09,2.74-3.3,5.19-6.83,7.39-10.56,6.55-11.11,10.11-23.28,13.14-35.66,2.53-10.35,3.71-20.88,2.8-31.48-.38-4.36-.75-9.42-6.37-11.1,1.62-5.59-.9-7.4-6.27-7.61-5.45-.22-10.87-1.23-16.3-1.89-4.95-.61-9.9-1.23-14.85-1.85-2.19-1.3-5.01,.22-7.09-1.58,.28-.67,.55-1.34,.83-2,5.61,1.82,11.5,1.91,17.27,2.74,6.99,1.04,13.96,2.21,20.98,3.02,2.1,.24,5.1,1.92,6.15-1.89,2.66,.02,4.62,1.42,6.47,3.16,6.44,6.02,7.92,14.1,9.32,22.21,.24,1.41-.22,3.09,1.78,3.59,.74,2.1,2.15,2.93,4.44,3.25,12.3,1.73,24.58,3.69,36.86,5.56,4.64,.71,9.29,1.41,13.93,2.12,1.16,.11,2.32,.18,3.47,.34,34.44,5.06,68.88,10.13,103.32,15.19-.48,.53-.96,1.06-1.44,1.59-17.23-2.56-34.45-5.18-51.69-7.68-19.21-2.78-38.43-5.45-57.65-8.17-4.65-.65-9.31-1.3-13.96-1.96-10.65-1.65-21.29-3.36-31.95-4.89-1.88-.27-4.53-1.46-5.08,2.04-1,6.38-2.05,12.75-3.02,19.14-.33,2.13-.12,4.04,2.64,4.42,7.72,1.05,15.43,2.14,23.15,3.21,4.75,.9,9.5,1.8,14.25,2.69,35.92,5.74,71.83,11.48,107.75,17.22-.43,.64-.85,1.28-1.28,1.93-4.43-1.52-9.1-1.74-13.68-2.46-31.62-5.01-63.25-9.98-94.87-14.95-3.95-.61-7.9-1.22-11.85-1.83-8.31-1.38-16.62-2.71-24.91-4.18-1.94-.34-2.79,.31-3.17,2.08-1.54,7.16-4.19,13.94-7.03,20.66-.92,2.18-.43,3.36,2.14,3.68,5.25,.65,10.48,1.51,15.72,2.28,4.35,1.38,8.87,1.85,13.37,2.4,1.61,.4,3.2,.92,4.83,1.2,33.65,5.79,67.3,11.56,100.95,17.34-.36,.71-.73,1.42-1.09,2.13Z"/><path class="e" d="M415.32,518.35c31.63,4.98,63.25,9.95,94.88,14.96,4.57,.73,9.25,.94,13.68,2.46-5.53,9.18-11.44,18.1-18.51,26.21-33.65-5.77-67.3-11.54-100.95-17.34-1.63-.28-3.22-.79-4.82-1.2,1.36-1.88,2.9-3.66,4.05-5.65,3.78-6.55,9.69-11.82,11.68-19.44Z"/><path class="e" d="M525.16,533.85c-35.92-5.74-71.83-11.48-107.75-17.22,1.24-4.36,4.39-7.67,6.36-11.61,2.27-4.52,6.71-7.75,7.61-13.05,19.22,2.72,38.44,5.39,57.65,8.17,17.24,2.5,34.46,5.11,51.69,7.68-4.25,9.24-9.72,17.74-15.57,26.02Z"/><path class="i" d="M623.29,191.47c-1.95,5.59-5.38,10.45-7.89,15.76-12.11-.38-24.21-.18-36.33-.79-20.22-1.02-40.5-.3-60.77-.94-26.38-.83-52.81-.41-79.22-1.22-5.32-.16-10.64-.14-15.96-.21-1.62-4.21-3.23-8.42-4.85-12.63,39.9-.03,79.81-.09,119.71-.09,28.43,0,56.86,.08,85.29,.12Z"/><path class="i" d="M606.16,230.31c-1.67,4.92-3.34,9.84-5,14.76-2.8-.28-5.59-.7-8.39-.8-12.28-.43-24.57-.45-36.85-.79-27.56-.77-55.12-1.47-82.68-2.07-17.94-.39-35.87-1.17-53.81-1.29-1.47,0-2.93-.4-4.39-.62,2.97-4.49,5.52-9.19,7.32-14.27,16.19,2.21,32.52,.29,48.77,1.76,12.55,1.14,25.22,.38,37.86,.93,17.09,.74,34.22,.63,51.34,1.2,15.28,.51,30.56,.8,45.84,1.19Z"/><path class="f" d="M542.16,506.23c-34.44-5.07-68.88-10.13-103.32-15.19-1.15-.17-2.31-.23-3.47-.34,.83-5.31,5.41-7.58,8.85-10.71,4.56-4.14,10.45-6.73,14.14-11.92,31.95,4.19,63.91,8.37,95.86,12.56-2.63,9.19-7.87,17.15-12.06,25.61Z"/><path class="f" d="M565.15,452.97c-2.23,9.06-5.68,17.65-9.93,25.94-18.58-2.42-37.16-4.8-55.74-7.28-13.13-1.75-26.23-3.62-39.35-5.44,3.08-4.45,6.18-8.89,9.24-13.36,2.29-3.34,6.07-5.66,6.95-9.98,12.83,1.49,25.65,3.02,38.48,4.47,16.78,1.91,33.56,3.77,50.35,5.65Z"/><path class="m" d="M583.21,330.97c-.67,7.07-1.34,14.14-2.01,21.21-4.95-.37-9.9-.72-14.85-1.11-29.67-2.34-59.34-4.68-89.01-7.02-.39-3.83-3.08-6.43-4.92-9.53-2.29-3.86-7.49-5.94-7.08-11.44,7.61,.39,15.22,.69,22.82,1.2,22.45,1.52,44.89,3.12,67.34,4.7,9.24,.65,18.47,1.33,27.71,1.99Z"/><path class="m" d="M580.23,354.2c.25,7.1,.19,14.18-2.03,21.04-2.98-.13-5.97-.15-8.94-.41-29.64-2.6-59.28-5.24-88.91-7.86-.04-6.92,.24-13.85-.96-20.72,33.61,2.65,67.23,5.3,100.84,7.95Z"/><path class="f" d="M572.01,428.3c-1.28,7.99-3.63,15.7-6.1,23.36-18.44-2.24-36.88-4.44-55.32-6.71-12.5-1.54-24.98-3.18-37.47-4.78,.47-2.13,1.67-3.83,2.93-5.59,3.52-4.9,7.1-9.8,9.34-15.48,.67,0,1.34-.08,2,0,28.21,3.06,56.42,6.13,84.63,9.2Z"/><path class="r" d="M266.48,3.68c23.96-6.45,46.98-4.96,68.32,8.67,4.11,2.63,8.46,5.32,10.83,9.98-6.11,1.79-6.3,2.14-4.01,7.77,.81,1.99,1.7,3.95,2.49,5.94,7.53,18.97,11.79,38.25,4.97,58.41-1.23,3.63-1.74,7.81-5.72,9.92-.73-3.86,.74-7.55,.92-11.34,.93-18.94,.01-37.52-10.07-54.42,3.19-3.38,1.38-6.46-.76-9.31-11.61-15.42-34.55-22.78-52.81-17.03-6.29,1.98-6.93,3.38-4.13,9.04-4,1.93-8.27,3.19-12.15,5.47-9.62,5.66-16.62,13.86-22.96,22.77-2.04-1.98-2.93,.27-3.9,1.24-8.2,8.18-10.39,18.65-11.12,29.65l.03-.05c-.11,.1-.32,.23-.3,.3,.06,.25,.21,.48,.32,.71-.45,4.12-2.09,7.92-3.21,11.86-1.58-2.15-.39-4.7-.99-6.99l.03-2.86c1.5-1.28,.95-3.06,1.14-4.66,1.24-10.44,2.97-20.88,9.27-29.58,8.38-11.56,17.51-22.63,28.09-32.21,4.36-3.95,6.26-7.79,5.7-13.28Z"/><path class="m" d="M578.16,377.08c.51,7.81-.7,15.48-1.97,23.13-18.65-1.77-37.3-3.47-55.94-5.32-11.02-1.09-22.03-2.41-33.04-3.62-1.88-7.08-3.85-14.16-1.85-21.58,11.42,.84,22.85,1.61,34.27,2.53,19.51,1.57,39.02,3.23,58.53,4.86Z"/><path class="f" d="M575.4,402.07c-.06,8.26-1,16.41-3.21,24.38-17.65-1.87-35.31-3.67-52.95-5.61-10.03-1.1-20.04-2.42-30.06-3.64,3.64-7.24,6.4-14.67,5.23-23l81,7.88Z"/><path class="f" d="M103.39,466.78c6.46-6.81,12.37-14.16,19.75-20.07,3.59,.58,7.18,1.2,10.78,1.72,19.82,2.85,39.64,5.68,59.46,8.52,1.13,5.45,1.34,11.12,3.79,16.26,.13,1.65-.02,3.38,.44,4.93,.89,2.95,.47,3.92-2.89,3.09-3.37-.83-8.3,.22-10.04-1.76-3.17-3.59-5.93,.36-8.53-1.01-.29-.15-.63-.24-.95-.29-23.94-3.8-47.87-7.6-71.81-11.4Z"/><path class="f" d="M80.57,488.22c6.98-6.69,13.96-13.38,20.94-20.07,.48,.14,.95,.33,1.43,.41,30.16,4.77,60.33,9.5,90.48,14.36,2.22,.36,5.17-.1,6.14,3.05l-.27-.11c-2.54,.82-5.14,1.11-7.82,1.03-6.06-.18-12.12-.25-18.18-.36-2.31-2.36-4.13-.88-5.79,.83-4.48,4.6-8.89,9.26-13.32,13.9-13.94-2.31-27.91-4.48-41.82-6.96-10.61-1.9-21.42-2.83-31.78-6.06Z"/><path class="l" d="M187.25,221.28c-9.32,.07-18.35-1.37-26.9-5.24,.04-9.96,.19-10.59,6.82-11.85,4.54-.87,7.54-2.32,6.05-8.2,2.2,2.03,1.68,5.88,5.26,5.28,4.97-.83,9.71-.67,14.63,.89,4.59,1.45,9.28-1.3,14.17-.75,8.62,.97,15.68-4.72,23.49-7.09,3.93-1.19,11.26-5.3,7.83-13.23-.07-.15,.17-.5,.34-.69,3.65-3.93,3.81-8.63,3.18-13.59-.92-7.25,3.8-11.14,10.13-8.45,4.68,16.13-.56,29.7-11.27,41.57-9.06,10.04-20.87,15.63-33.69,19.33-6.68,.67-13.36,1.34-20.05,2.01Zm16.46-16.66c.16-.8-.22-1.09-.74-1.13-.27-.02-.82,.22-.81,.3,.04,.38,.15,.99,.38,1.06,.36,.11,.83-.15,1.18-.23Z"/><path class="r" d="M199.56,485.96c-.97-3.14-3.92-2.69-6.14-3.05-30.15-4.86-60.31-9.59-90.48-14.36-.49-.08-.96-.27-1.43-.41,.16-1.1,1.06-1.19,1.88-1.37,23.94,3.8,47.87,7.59,71.81,11.4,.33,.05,.66,.14,.95,.29,2.6,1.37,5.36-2.58,8.53,1.01,1.75,1.98,6.67,.93,10.04,1.76,3.36,.82,3.77-.14,2.89-3.09-.46-1.55-.32-3.28-.44-4.93,1.96-1.21,1.97-3.16,2.27-5.17,1.2-8,4.71-14.36,12.92-17.13,.27,.59,.8,1.19,.78,1.76-.18,4.67,2.07,6.48,6.65,6.5,3.11,.02,6.22,.88,9.33,1.3,15.75,2.1,31.39,5.09,47.24,6.45,13.88,2.59,27.84,4.6,41.88,6.13,4.24,1.15,8.56,1.79,12.93,2.11,10.02,1.49,20.05,2.97,30.07,4.46-.16,1.05-.32,2.1-.48,3.15-2.21-2.83-5.48-1.64-8.29-2.18-6.99-1.08-13.97-2.16-20.96-3.24l-10.1-1.31c-3.26-.91-6.6-1.24-9.97-1.3-8.98-1.78-18-3.25-27.15-3.82-3.19-1.42-6.7-1.12-10.03-1.8-3.57-.5-7.14-1-10.71-1.51-14.87-2.25-29.75-4.4-44.59-6.83-3.79-.62-5.11,.19-3.93,3.99-2.33,.13-3.44,1.25-3.77,3.68-.87,6.54,.16,12.79,2.72,18.76,3.56,8.29,7.53,16.37,14.21,22.74,.85,3.37,2.91,5.19,6.46,5.51,3.24,.29,6.46,.91,9.68,1.38,4.29,.76,8.51,2.02,12.93,1.94,21.51,4.42,43.17,8.03,64.89,11.26l23.29,4.74c-.2,.67-.4,1.34-.6,2.01-.42-.25-.81-.66-1.26-.74-19.74-3.39-39.48-6.75-59.23-10.11-2.99-.48-5.99-.96-8.98-1.44-6.72-1.17-13.43-2.33-20.15-3.5-6.51-1.23-13.03-2.46-19.54-3.7-.97-.18-2.07-.78-2.84,0-1.08,1.09,.05,2.17,.53,3.11,1.93,3.82,3.97,7.58,5.97,11.36-2.55,.49-3.94-1.29-5.46-2.8-9.1-9.03-15.1-20.43-23.15-30.27-3.58-4.37-5.47-10.27-11.22-12.74Z"/><path class="d" d="M151.35,126.32c11.75-6.88,24.31-10.34,38.01-9.08,1.32,.12,2.66,0,3.99,0,3.65,2.39,6.71,5.4,9.37,8.83l-.49,1.13c-1.15,1.29-1.38,3.08,.07,3.76,4.4,2.06,2.77,4.62,1.04,7.35-1.53,1.11-3.17,2.13-3.72,4.75,2.87-.76,3.79-2.35,3.82-4.67,1.21-.35,3.02,.68,3.24-1.81,.17-1.92,1.09-3.8-.97-5.3-1.38-1.01-3.39-1.54-3.24-3.85,.31-.33,.62-.65,.93-.98,6.05,4.48,12.55,8.2,19.24,11.61-.1,1.42-.21,2.83-.31,4.25-.34,.32-.68,.64-1.01,.97-.33,.34-.66,.68-.99,1.01-4.72,.32-7.28,3.3-9.02,7.3-3.06-1.34-5.34-4.19-8.89-4.59-1.19-1.56-3.04-1.89-4.74-2.41-12.06-3.68-23.75-2.92-34.99,3-6.03-.39-7.63-2.46-6.32-8.11,.2-.84,.35-1.7,1.32-1.85,.99-.15,1.54,.53,1.65,1.43,.25,1.93-.16,4.09,2.03,5.26l.18,.88,.42-.23c-.2-.21-.41-.42-.61-.63-.04-1.98-.29-3.98-.08-5.92,.45-4.11-5.45-1.3-5.26-4.98l-2.66,1.91h0c-.33-.66-.67-1.33-1-1.99h0c-.37-2.33,.79-4.88-1.01-7.01h-.01Z"/><path class="k" d="M222.28,83.42c-.01,.95-.02,1.91-.03,2.86-3.69,4.46-1.81,9.33-1.02,14.11-1.02,4.76-2.04,9.52-3.06,14.28-6.78-2.05-12.46-6.02-17.9-10.37,2.32-14.86,6.9-29.08,12.69-42.9,7.68-18.32,18.04-34.78,34.1-47.1,3.84-2.95,8.01-5.34,12.24-7.66-.27,3.04,.92,6.24-1.59,9-7.24,7.95-13.95,16.37-21.16,24.37-6.19,6.87-13.7,13.48-13.76,23.87-.04,6.52-2.88,12.97-.5,19.54Z"/><path class="k" d="M252.26,158.37c-6.33-2.7-11.05,1.19-10.13,8.45,.63,4.96,.47,9.66-3.18,13.59-.17,.19-.41,.53-.34,.69,3.43,7.92-3.9,12.04-7.83,13.23-7.81,2.37-14.87,8.06-23.49,7.09-4.89-.55-9.58,2.2-14.17,.75-4.93-1.56-9.67-1.73-14.63-.89-3.59,.6-3.07-3.25-5.26-5.28,1.49,5.88-1.5,7.33-6.05,8.2-6.63,1.26-6.78,1.89-6.82,11.85-2.41-.15-4.27-1.48-6.07-2.9-.25-1.91,.92-4.96-2.52-4.69-2.71,.21,.53,2.15-.38,3.15-3.42-1.47-6.85-2.92-9.19-6.03,1.96-2.06,3.41-4.33,3.18-7.34,.92,.25,1.83,1.11,2.8,.42,4.13-2.95,8.99-4.39,14.16-6.36-5.12-4.06-10.47-4.34-15.96-4.03,.59-1.64,3.04-1.89,3.01-4h0c4.33,2.69,9.36,3.63,14,5.55,1.57,.65,3.1,2.1,4.97,.65,13.53,6.84,27.31,7.32,41.34,1.65,2.18,.31,4.16,3.65,5.63,2.38,2.92-2.51,6.58-1.12,9.76-3.35,4.44-3.13,8.18-6.78,9.52-11.49,1.19-4.17,.78-9.12-.46-13.63-.15-.53-.69-1.18-1.2-1.36-4.39-1.56-4.43-4.78-4.42-8.83,0-3.16-.5-6,1.89-8.49,.11-.12-.24-1.02-.55-1.14-3.1-1.23-2.44-4.43-3.59-6.67,2.41,.53,4.82,1.06,7.23,1.59,2.96,.65,5.92,1.3,8.89,1.95,1.05,.14,2.1,.28,3.15,.42,.39,.16,.78,.32,1.17,.48l-.02-.15c.78,5.27,5.2,9.14,5.59,14.56Zm-86.49,41.48c-.48-.07-.93-.2-1.35-.15-.15,.02-.23,.51-.35,.79,.43,.12,.86,.29,1.29,.3,.1,0,.23-.51,.41-.95Z"/><path class="d" d="M168.34,190.46c-1.87,1.45-3.4,0-4.97-.65-4.64-1.91-9.66-2.86-14-5.54,.05-2.74-1.41-3.34-4.17-2.6,1.77,.66,3.21,1.3,4.18,2.59,.03,2.11-2.42,2.36-3.01,4v-.02c-1.63,.5-3.26,.99-5,1.52,1.36,.79,2.2,1.85,2.02,3.47h-.01c-3.08,1.17-6.81,.97-8.88,4.24l-.08-.06c-.32-.1-.64-.21-.96-.31-12.97-14.88-14.26-36.41-3.12-51.97,.04,.87,.26,1.66,1.04,2.18h-.01c.34,.32,.67,.66,1.01,.99h0c2.46,1.36,6.11,3.42,7.02-.19,1.24-4.95,3.98-5.09,7.73-4.92,1.39,.06,2.53-.64,3.25-1.89h0l1.01-1h0l1.01-1h0c2.33,.31,2.1,2.12,2.17,3.73,.14,3.39,1.66,5.84,4.83,7.2-4.51,4.75-8.71,9.63-7.23,16.93-.58,1.84,.05,3.58,.58,5.26,2.59,8.25,8.31,13.83,15.63,18.01Zm-29.52-1.89l.16-.52-.3,.08,.13,.44Z"/><path class="g" d="M186.62,365.07c.86-17.02-.7-34.02-.26-51.04,.12-4.63,.1-9.26,.14-13.89,6.47,0,12.93,.01,19.4,.02,1.14,11.08-.04,22.21,.64,33.3-.01,3.49-.03,6.98-.04,10.46l-.05,2.16c.18,5.99,.36,11.98,.54,17.98-.15,.69-.3,1.39-.45,2.08l-.33,2.83c-6.34,.21-12.67-1.11-19.01-.12-.19-1.26-.38-2.52-.58-3.77Z"/><path class="f" d="M123.96,445.1c5.51-6.37,11.02-12.74,16.52-19.11,5.22,.67,10.46,1.22,15.67,2.03,11.37,1.78,22.91,2.45,34.18,4.94,.82,6.97,1.64,13.95,2.46,20.92-.95,1.37-2.37,1.04-3.62,.86-21.74-3.19-43.47-6.42-65.2-9.65Z"/><path class="p" d="M205.9,300.15c-6.47,0-12.93-.01-19.4-.02-.26-22.53-.43-45.05,.56-67.57,2.79-.62,3.12,1.78,4.15,3.36,4.1,6.28,7.02,13.65,14.97,16.43l-.27,47.81Z"/><path class="k" d="M363.57,96.35c-.19,17.79-4.63,34.83-9.17,51.85-6.76,2.78-13.92,2.99-21.07,3.27,2.72-12.04,5.45-24.08,8.17-36.13,5.14-3.84,7.34-9.7,9.91-15.15,3.94-8.36,5.16-8.93,12.16-3.84Z"/><path class="o" d="M333.33,151.46c7.15-.28,14.31-.49,21.07-3.27,10.65-3.15,20.19-8.33,28.35-15.85,4.32-3.98,8.29-8.33,12.84-12.18,.19,3.68-2.02,6.25-3.19,9.21-2.49-.26-3.9,1.44-5.48,2.93-5.68,5.35-10.64,11.45-16.87,16.21-10.81,8.25-23.48,11.91-36.47,14.85-2.92,.66-6.35,.67-8.27,3.75-5.3,.09-10.6,.18-15.9,.27-.67-.83-1.55-1.12-2.56-.85-.19,.05-.48,.53-.41,.64,.67,1.24,1.87,.95,2.96,.95,.76,.33,1.51,.65,2.27,.98-.1,.68-.19,1.36-.29,2.04l-2.78,.08c-3.5-1.43-7.31-2.19-10.24-4.85-2.31-2.1-3.83-4.57-3.38-7.78,.48-3.47,3.15-4.93,6.11-5.82,2.87-.87,5.86-.98,8.87-1.03,7.79-.12,15.6,.71,23.38-.32Z"/><path class="o" d="M245.52,143.48c-1.05-.14-2.1-.28-3.14-.42-.67-2.45-2.67-3.64-4.58-4.99-11.1-7.81-24-12.78-34.42-21.63-8.96-7.62-16.01-16.58-18.93-28.27,3.6,3.94,7.47,7.68,10.69,11.91,1.48,1.94,3.17,3.12,5.13,4.21,5.44,4.36,11.12,8.32,17.9,10.37,8.36,4.08,17.4,6.09,26.28,8.58,4.46,1.25,8.97,2.32,12.99,4.73,2.81,1.69,5.35,3.82,4.75,7.44-.58,3.45-2.8,5.83-6.28,7.01-3.02,1.03-6.12,1.18-9.23,1.38l.02,.15c-.39-.16-.78-.32-1.17-.48Z"/><path class="l" d="M363.57,96.35c-7-5.09-8.22-4.52-12.16,3.84-2.57,5.46-4.77,11.31-9.91,15.15,.82-3.61,.47-7.43,1.88-10.94,3.98-2.11,4.49-6.3,5.72-9.92,6.82-20.16,2.55-39.44-4.97-58.41-.79-2-1.69-3.95-2.49-5.94-2.29-5.63-2.1-5.99,4.01-7.77,10.03,10.81,15.24,23.93,17.53,38.18,1.91,11.86,2.99,23.85,.41,35.82Z"/><path class="r" d="M305.12,590.04c27.11,5.57,54.22,11.15,81.34,16.7,22.92,4.69,45.84,9.36,68.76,14.04-.57,.39-1.14,.77-1.71,1.16-27.39-5.47-54.79-10.91-82.17-16.44-50.53-10.19-101.05-20.42-151.57-30.64-36.17-7.32-72.34-14.69-108.53-21.94-2.25-.45-4.84-1.97-6.98,.53-.19,.22-.78,.43-.83,.37-5.05-6.52-12.99-4.29-19.51-6.25-6.82-2.05-13.98-2.98-20.99-4.4-7.17-1.46-14.34-2.91-21.5-4.4-6-1.25-11.99-2.57-17.99-3.86,.64-.4,1.28-.79,1.92-1.19,78.33,15.82,156.66,31.64,234.99,47.46,14.93,2.95,29.86,5.91,44.79,8.86Z"/><path class="f" d="M142.59,423.5c4.96-6.25,9.93-12.49,14.89-18.74,10.25,1.12,20.49,2.24,30.74,3.35,.57,7.35,1.14,14.71,1.72,22.06-10.57-.46-20.97-2.39-31.42-3.83-5.34-.73-10.9-.37-15.93-2.85Z"/><path class="r" d="M649.32,157.46c-28.27,1.16-56.57,.26-84.83,1.15-13.3,.42-26.59,.51-39.88,.61-36.11,.27-72.2,1.72-108.31,1.05-4.37-.08-8.69,2.16-13.19-.54,4.11-.46,8.21-1.24,12.33-1.32,10.82-.2,21.65-.09,32.47-.11,35.11-.07,70.22-.75,105.31-1.31,26.45-.42,52.9-.19,79.34-.86,6.29-.16,12.57-.96,18.89-.67-.71,.67-1.42,1.34-2.14,2.01Z"/><path class="r" d="M206.17,252.34c-7.95-2.78-10.87-10.14-14.97-16.43-1.03-1.57-1.36-3.98-4.15-3.36-1.68-3.79,.51-7.51,.2-11.28,6.68-.67,13.36-1.34,20.05-2.01-.7,4.07-.88,8.16-.87,12.29,.01,6.93-.16,13.86-.26,20.78Z"/><path class="r" d="M389.19,258.18c14.73,1.35,29.51,1.52,44.27,2.05,27.05,.97,54.11,1.81,81.15,3.08,15.92,.75,31.87,1.17,47.77,2.1,10.93,.64,21.93-.11,32.8,1.6,.1,.82,.04,1.59-.72,2.12-4.9-1.35-9.92-.78-14.89-.96-19.59-.71-39.19-1.18-58.77-2.17-16.59-.84-33.18-1.43-49.78-2.04-16.76-.61-33.51-1.51-50.28-1.95-13.44-.35-26.86-1.26-40.29-1.92,2.71-1.58,5.69-1.94,8.75-1.93Z"/><path class="m" d="M159.58,402.53c4.58-5.91,8.49-12.35,13.77-17.72,4.6,.47,9.2,.93,13.81,1.4l.54,19.85c-9.46-.52-18.85-1.55-28.12-3.53Z"/><path class="r" d="M578.16,377.08c-19.51-1.62-39.02-3.29-58.53-4.86-11.42-.92-22.84-1.69-34.27-2.52-4.64-.48-9.27-.96-13.91-1.44-10.73-.43-21.35-2.34-32.11-2.26-.78-.26-1.55-.7-2.34-.77-17.82-1.44-35.64-2.83-53.46-4.24,.15-.61,.3-1.22,.45-1.84,1.32-.03,2.66-.17,3.97-.06,12.67,1.02,25.35,2.08,38.02,3.14,14.8,1.24,29.6,2.51,44.4,3.76,3.35,.11,6.58,1.44,9.98,.98,29.64,2.63,59.27,5.26,88.91,7.86,2.97,.26,5.96,.28,8.94,.41-.02,.61-.03,1.22-.05,1.83Z"/><path class="r" d="M575.4,402.07c-27-2.63-54-5.25-81-7.88-6.67-.66-13.34-1.32-20.01-1.97-3.98-.33-7.96-.67-11.95-1-8.38-.71-16.66-2.44-25.12-2.21-4.54-1.61-9.38-.92-14.02-1.83-13.65-1.39-27.29-2.78-40.94-4.17,.03-.66,.07-1.32,.1-1.97,.9,.05,1.81,.09,2.71,.14,1.46,1.1,3.18,.63,4.8,.79,12.78,1.28,25.55,2.54,38.33,3.81,3.99,.33,7.97,.65,11.96,.98,9.01,.69,17.94,2.3,27.01,2.36,6.58,1.3,13.24,1.82,19.93,2.15,11.01,1.22,22.02,2.53,33.04,3.62,18.64,1.85,37.29,3.55,55.94,5.32-.26,.62-.53,1.24-.79,1.86Z"/><path class="r" d="M580.23,354.2c-33.61-2.65-67.23-5.3-100.84-7.95-5.67-.38-11.34-.75-17.02-1.13-10.25-.75-20.51-1.46-30.76-2.27-15.03-1.2-30.05-2.48-45.08-3.72,.17-.69,.35-1.38,.52-2.07,4.1,.32,8.19,.65,12.29,.97,21.67,1.66,43.34,3.33,65.01,4.99,4.33,.34,8.66,.68,12.99,1.03,29.67,2.34,59.34,4.69,89.01,7.02,4.95,.39,9.9,.74,14.85,1.11,.06,.86-.23,1.55-.97,2.02Z"/><path class="r" d="M583.21,330.97c-9.24-.67-18.47-1.34-27.71-1.99-22.45-1.58-44.89-3.18-67.34-4.7-7.6-.51-15.21-.81-22.82-1.2-24.73-1.68-49.47-3.37-74.2-5.05l.29-1.97c26.82,1.72,53.63,3.43,80.45,5.18,20.03,1.3,40.05,2.59,60.08,3.99,17.36,1.21,34.72,2.56,52.08,3.85-.28,.63-.55,1.27-.82,1.9Z"/><path class="r" d="M586.16,310.2c-24.04-1.38-48.08-2.77-72.12-4.13-24.37-1.38-48.75-2.67-73.12-4.1-14.58-.86-29.15-1.93-43.72-2.9,.15-.63,.31-1.26,.46-1.89,19.83,1.27,39.67,2.59,59.5,3.78,8.94,.54,17.9,.71,26.83,1.26,24.63,1.52,49.25,3.2,73.88,4.7,9.76,.59,19.55,.86,29.32,1.28-.35,.67-.69,1.33-1.04,2Z"/><path class="r" d="M423.13,204.07c5.32,.06,10.64,.05,15.96,.21,26.4,.81,52.83,.39,79.22,1.22,20.27,.64,40.54-.08,60.77,.94,12.12,.61,24.22,.41,36.33,.79-.35,.68-.7,1.36-1.04,2.04-28.11-.16-56.21-.84-84.31-1.3-22.61-.37-45.25-.03-67.83-.99-12.97-.55-25.92-.28-38.88-.7-.07-.73-.14-1.47-.21-2.2Z"/><path class="r" d="M415.03,239.5c1.46,.21,2.93,.61,4.39,.62,17.95,.12,35.88,.9,53.81,1.29,27.56,.61,55.12,1.3,82.68,2.07,12.28,.34,24.57,.36,36.85,.79,2.8,.1,5.59,.53,8.39,.8,.15,1.04,.2,2.06-.63,2.89-2.35-1.48-4.97-1.66-7.67-1.7-23.45-.34-46.91-.42-70.35-1.2-26.42-.88-52.84-1.46-79.26-2.14-9.95-.26-19.94-.13-29.89-.92,.07-1.16,.56-2.03,1.67-2.49Z"/><path class="r" d="M606.16,230.31c-15.28-.39-30.57-.69-45.84-1.19-17.11-.57-34.25-.46-51.34-1.2-12.63-.55-25.31,.21-37.86-.93-16.25-1.48-32.58,.44-48.77-1.76,.28-.65,.55-1.31,.83-1.96,12.1,1.56,24.26,.55,36.39,1.02,27.75,1.06,55.52,1.45,83.27,2.21,12.46,.34,24.96,0,37.39,.9,8.98,.65,17.94,.51,26.9,.88-.33,.68-.65,1.36-.98,2.04Z"/><path class="r" d="M54.68,510.88c13.35,3.41,27,5.38,40.52,7.93,40.42,7.65,80.86,15.18,121.31,22.7,2.03,.38,4.11,1.25,6.24,.4,.53,.92,1.06,1.84,1.59,2.76-29.54-5.47-59.08-10.88-88.59-16.46-4.34-.82-8.16-.84-11.36,2.61l-.02-.02c1.54-2.15,3.38-4.12-1.26-4.97-23.54-4.29-47.05-8.73-70.57-13.11,.42-.95,1.13-1.58,2.15-1.84Z"/><path class="r" d="M590.17,288.26c-25.7-1.07-51.42-1.94-77.1-3.31-12.75-.68-25.51-1.25-38.26-1.94-20.7-1.12-41.4-2.42-62.12-2.99-1.8-.05-3.59-.58-5.39-.88-.02-.6-.05-1.21-.07-1.81,12.76,.63,25.52,1.22,38.27,1.91,22.52,1.23,45.04,2.56,67.57,3.76,9.29,.5,18.58,.82,27.87,1.14,16.76,.58,33.47,2.22,50.26,2.09-.34,.68-.68,1.36-1.02,2.04Z"/><path class="r" d="M460.14,466.18c13.12,1.82,26.23,3.69,39.35,5.44,18.57,2.47,37.16,4.85,55.74,7.28-.33,.57-.67,1.15-1,1.72-31.95-4.19-63.91-8.37-95.86-12.56-6-.73-12-1.45-18-2.18-1.29-.3-2.56-.71-3.87-.88-18.04-2.38-36.09-4.73-54.14-7.09-.03-.62-.07-1.24-.1-1.86,3.6,.44,7.2,.88,10.8,1.33,15.07,1.89,30.14,3.78,45.21,5.67,3.7,.56,7.4,1.12,11.1,1.69,3.59,.48,7.17,.97,10.76,1.45Z"/><path class="g" d="M184.44,88.17c2.92,11.69,9.96,20.65,18.93,28.27,10.42,8.86,23.33,13.82,34.42,21.63,1.91,1.34,3.91,2.54,4.58,4.99-2.96-.65-5.92-1.3-8.89-1.95-1.53-2.1-3.94-2.99-6.08-4.1-10.76-5.58-20.72-12.13-29.24-20.9-4.39-4.52-7.59-9.93-11.97-14.39-.09-3.59-.88-6.66-5.28-7.02-2.8-4.4-4.01-9.4-5.44-14.32,1.35-.03,2.71-.06,4.06-.08l-.07-.04c-.24,1.65-.12,3.04,2.07,3.05l-.14-.03c.29,.36,.59,.73,.88,1.09,.38,.6,.77,1.2,1.15,1.8,.28,.4,.56,.8,.85,1.19,.15,.25,.21,.52,.16,.81Z"/><path class="l" d="M222.28,83.42c-2.38-6.57,.47-13.01,.5-19.54,.06-10.39,7.57-17,13.76-23.87,7.2-8,13.91-16.41,21.16-24.37,2.52-2.76,1.33-5.96,1.59-9,2.4-.99,4.79-1.97,7.19-2.96,.56,5.49-1.34,9.34-5.7,13.28-10.58,9.58-19.71,20.65-28.09,32.21-6.31,8.7-8.03,19.14-9.27,29.58-.19,1.61,.35,3.38-1.14,4.66Z"/><path class="g" d="M325.32,167.13c1.92-3.07,5.35-3.08,8.27-3.74,12.99-2.95,25.67-6.6,36.47-14.85,6.24-4.76,11.2-10.86,16.87-16.21,1.58-1.49,2.99-3.19,5.48-2.93-3.08,4.57-6.15,9.14-9.23,13.7-.94,.81-1.89,1.63-2.83,2.44-1.63-.32-2.88,.35-4.01,1.46-9.14,8.96-20.45,13.86-32.59,17.04-6.03,1.58-11.91,4.34-18.43,3.1Z"/><path class="r" d="M634.3,174.41c-61.15-.03-122.29-.06-183.44-.09-15.49,0-30.99-.04-46.48-.06,1.07-1.49,2.67-1.12,4.12-1.12,75.63,.01,151.25,.04,226.88,.07-.36,.4-.72,.8-1.08,1.2Z"/><path class="r" d="M473.11,440.17c12.49,1.6,24.98,3.24,37.48,4.78,18.44,2.27,36.89,4.47,55.32,6.71-.26,.44-.5,.87-.75,1.31-16.78-1.88-33.57-3.74-50.35-5.65-12.83-1.46-25.66-2.98-38.48-4.47-3.98-.44-7.96-.88-11.95-1.32-2.59-.98-5.32-.44-7.97-.73-.02-.3-.05-.59-.1-.88,.01-.34,.02-.68,.04-1.03,5.66-.55,11.13,1.53,16.77,1.28Z"/><path class="r" d="M186.19,101.72c4.38,4.47,7.59,9.87,11.97,14.39,8.52,8.78,18.48,15.33,29.24,20.9,2.14,1.11,4.56,2.01,6.08,4.1-2.41-.53-4.82-1.06-7.23-1.59-.24-.14-.49-.27-.74-.39-.95-.37-1.91-.73-2.86-1.1-6.69-3.41-13.2-7.13-19.24-11.61-.19-.2-.42-.32-.69-.37-2.66-3.43-5.72-6.44-9.37-8.83-2.04-4.84-6.58-8.19-8.01-13.4,.28-.7,.57-1.41,.85-2.11Z"/><path class="r" d="M80.57,488.22c10.36,3.24,21.17,4.17,31.78,6.06,13.91,2.48,27.88,4.65,41.82,6.96,1.02,.31,2.05,.63,3.07,.94-.54,.48-1.09,.96-1.63,1.44-2.32,1.79-3.21,4.97-6.11,6.19l-.09,.1c-4.84,.17-6.26,5.26-10.04,6.94l-.05-.05c4.13-4.44,8.26-8.88,12.84-13.8-24.91-4.26-49.3-8.43-73.7-12.6,.03-1.38,.93-1.92,2.11-2.18Z"/><path class="r" d="M623.29,191.47c-28.43-.04-56.86-.12-85.29-.12-39.9,0-79.81,.06-119.71,.09-.22-.37-.44-.74-.66-1.11,2.49-.07,4.98-.21,7.47-.21,64.02-.01,128.03,0,192.05-.01,2.33,0,4.65-.07,6.98-.11-.28,.49-.56,.98-.84,1.47Z"/><path class="r" d="M489.17,417.2c10.02,1.22,20.03,2.54,30.06,3.64,17.64,1.94,35.3,3.75,52.95,5.61-.06,.62-.11,1.23-.17,1.85-28.21-3.07-56.42-6.14-84.63-9.2-.66-.07-1.33,0-2,0-3.48-.6-6.95-1.2-10.43-1.8,.06-.38,.12-.77,.18-1.16,4.68,.35,9.35,.7,14.03,1.05Z"/><path class="d" d="M135.44,138.3c4.69-4.81,9.54-9.4,15.91-11.99h.01c.38,2.33-.71,4.88,1.01,7.01h0c.33,.67,.67,1.34,1,2h0c.23,1.47-.29,2.75-1,3.99h0c-.34,.33-.67,.66-1.01,1h0c-.34,.33-.67,.66-1.01,1h0c-4.29,.33-1.18-4.52-3.76-5.55q-.25,6.8-7.24,5.54h.01c-.34-.32-.67-.66-1.01-1h.01c-.67-.33-1.34-.66-2.01-1h0l-.94-1.02Z"/><path class="r" d="M123.96,445.1c21.73,3.22,43.46,6.45,65.2,9.65,1.25,.18,2.68,.51,3.62-.86,1.04,.86,.61,2,.59,3.07-19.82-2.84-39.64-5.67-59.46-8.52-3.6-.52-7.19-1.14-10.78-1.72,.28-.54,.55-1.08,.83-1.61Z"/><path class="m" d="M186.62,365.07c.19,1.26,.38,2.52,.58,3.77,.04,5.06,.08,10.12,.11,15.18-4.39,.59-8.66-.52-12.98-.94,4.02-6.06,7.46-12.51,12.29-18.02Z"/><path class="r" d="M142.59,423.5c5.03,2.48,10.59,2.11,15.93,2.85,10.45,1.44,20.85,3.37,31.42,3.83,.13,.93,.26,1.85,.39,2.78-11.27-2.49-22.8-3.16-34.18-4.94-5.2-.82-10.44-1.36-15.67-2.03,.7-.83,1.4-1.66,2.11-2.48Z"/><path class="d" d="M145.37,198.23c.23,3-1.22,5.28-3.18,7.34-3.16-2.07-6.03-4.41-7.56-8.01,3.24-.66,6.41-3.13,9.76-.31l-.02-.02c.34,.34,.68,.68,1.02,1.02l-.02-.02Z"/><path class="r" d="M159.58,402.53c9.27,1.98,18.66,3.01,28.12,3.53,.18,.69,.35,1.37,.53,2.06-10.25-1.12-20.49-2.23-30.74-3.35,.7-.75,1.39-1.49,2.09-2.24Z"/><path class="d" d="M131.02,144.19c.67-1.98,2.24-3.29,3.51-4.83,.62,0,1.23-.02,1.85-.03h0l2.01,1h-.01c.34,.33,.67,.66,1.01,1h-.01c-1.02,3.63-.65,8.66-7,6.98h0c-.34-.33-.67-.67-1.01-1h.01l-.36-3.12Z"/><path class="r" d="M174.33,383.09c4.32,.42,8.59,1.53,12.98,.94l-.15,2.18c-4.6-.46-9.2-.93-13.81-1.4,.33-.58,.65-1.15,.98-1.73Z"/><path class="o" d="M179.53,80.3c-1.35,.03-2.71,.06-4.06,.08-.57-3.27-1.55-6.49-1.37-10.47,2.69,3.37,4.09,6.86,5.43,10.39Z"/><path class="p" d="M186.19,101.72c-.28,.7-.57,1.41-.85,2.11-2.42-2.59-3.93-5.61-4.42-9.13,4.39,.37,5.19,3.43,5.28,7.02Z"/><path class="k" d="M144.38,197.25c-3.34-2.82-6.52-.35-9.76,.31,0,0-.14-.08-.14-.08,2.07-3.27,5.8-3.07,8.88-4.22,.34,1.33,.68,2.66,1.01,4Z"/><path class="l" d="M151.38,211.6c.92-1-2.32-2.94,.38-3.15,3.44-.27,2.27,2.78,2.52,4.69-1.22-.05-2.15-.62-2.9-1.54Z"/><path class="o" d="M181.53,83.31c-2.18,0-2.31-1.41-2.07-3.05,1.24,.65,2,1.62,2.07,3.05Z"/><path class="k" d="M131.02,144.19l.36,3.13c-.78-.52-1-1.3-1.04-2.18,.23-.32,.46-.64,.69-.96Z"/><path class="k" d="M136.38,139.33c-.62,0-1.23,.02-1.85,.03,.3-.35,.61-.7,.91-1.05,.31,.34,.63,.68,.94,1.02Z"/><path class="k" d="M133.45,197.11c.32,.1,.64,.2,.96,.31-.62,.83-.77,.19-.96-.31Z"/><path class="o" d="M184.28,87.36c-.28-.4-.56-.8-.85-1.19,.28,.4,.56,.8,.85,1.19Z"/><path class="o" d="M182.28,84.37c-.29-.36-.59-.73-.88-1.09,.29,.36,.59,.73,.88,1.09Z"/><path class="k" d="M417.62,190.33c.22,.37,.44,.74,.66,1.11,1.62,4.21,3.23,8.42,4.85,12.63,.07,.73,.14,1.47,.21,2.2-.03,.65-.06,1.29-.09,1.93-2.29,.6-3.38-1.61-5.38-2.6-.52,2.71-1.42,4.77-3.2,6.69-2.17,2.34-4.47,5.39-4.78,8.33-.19,1.78,1.3,3.92-.39,5.93-1.81,2.16-.61,5.66-3.43,7.46-1.62,1.03-2.88,2.16-4.11,4.09-2.38,3.71-7.19,6.74-12.17,6.84-6.03,.13-11.85-1.57-18.1,.87-2.94,1.15-7.93,.45-11.01-2.79-1.06-1.12-1.95-1.03-3.46-.54-4.03,1.32-8.81,.2-10.99-2.37-1.83-2.15-2.7-2.2-4.87-1.97-1.58,.17-3.34-.19-4.85-.77-3.7-1.43-7.73-1.89-11.27-.92-4.07,1.12-9.52,.99-10.92,6.75-2.66-.29-3.66-2.93-5.73-4.05-.67-.67-1.33-1.34-2-2.01-2.73-4.97-7.53-8.75-8.4-14.77,2.14-.18,3.94,.18,6.07,1.15,3.88,1.78,8.32,2.95,12.52-.05q-3.21-2.69-2.81-5.39c4.99,4,10.97,5.35,17.47,5.1,6.94,6.06,14.77,11.31,23.69,12.74,10.33,1.66,21.07,1.24,30.05-5.93,1.7,1.61,4.05,3.89,5.92,2.42,2.84-2.22,4.77-5.63,7.01-8.58,.15-.2-.19-1.1-.52-1.28-2.17-1.18-3.19-3.96-5.95-4.3,.15-.71,.3-1.41,.45-2.12,1.05,.05,2.08-.06,2.1-1.39,.02-1.34-1.01-1.47-2.05-1.45-.1-.71-.21-1.43-.31-2.14,3.79-.98,8.46-1.57,8.22-6.65-.16-3.4-2.64-6.59-.36-10.27,.44-.71-1.44-.85-2.36-1.01l.02,.02c1.92-1.9,3.93-5.68,2.7-6.64-3.62-2.81-2.13-7.15-4.32-10.16-1.52,1.72-.89,4.69-3.4,5.81,.06-.65,.09-1.31,.2-1.96,.49-2.9,1.79-5.92,1.34-8.67-.72-4.44-5.17,.39-7.13-2.08-.23-.29-.94-.21-1.42-.3l.03,.02c.41-.97,2.14-1.3,1.37-2.83-1.79-3.58-9.13-4.09-11.6-.84-1.19,1.56-1.97,2.63,.15,4.43,3.92,3.34,3.56,5.12-.93,8.23,1.07-3.02,2.85-6.06-1.91-7.88-1.45-.55-1.61-2.85-.43-3.92,2.94-2.67,2.03-5.16,.22-7.81,1.92,.25,3.84,.5,5.76,.75,1.4,1.37,3.29,1.44,5.03,1.94,7.76,3.24,14.71,7.82,21.33,12.93,4.73,5.1,9.96,9.79,13.27,16.05Z"/><path class="d" d="M372.23,158.66c1.81,2.65,2.72,5.14-.22,7.81-1.18,1.07-1.02,3.37,.43,3.92,4.76,1.82,2.98,4.86,1.91,7.88h0c-3.87,.19-4.44,4.19-6.93,5.98-13.41-4.96-26.36-5.4-38.31,3.92-1.05-.61-1.73-1.51-2.14-2.63-1.45-3.99,.31-8.83,3.38-9.27v4.78q.82-2.48,0-4.78c-.86-1.47-5.44-.41-2.87-4.21,14.82-1.55,28.52-6.17,40.76-14.8,1.33,.46,2.66,.93,3.99,1.39Z"/><path class="p" d="M368.24,157.26c-12.24,8.63-25.94,13.24-40.76,14.8-.69-.47-1.4-.62-2.14-.09-2.89-.13-5.78-.26-8.67-.39-.95-2.29-2.99-2.34-5.01-2.44-.76-.33-1.51-.65-2.27-.98,.01-.25,.02-.5,.01-.75,5.3-.09,10.6-.18,15.9-.27,6.52,1.24,12.41-1.52,18.43-3.1,12.14-3.18,23.45-8.09,32.59-17.04,1.13-1.11,2.38-1.78,4.01-1.46-3.47,4.5-7.87,8.03-12.1,11.73Z"/><path class="r" d="M383.02,161.34c-1.73-.5-3.63-.57-5.03-1.94,5.74,0,11.48,0,18.25,0-4.79,3.06-9.18,1.24-13.22,1.94Z"/><path class="p" d="M224.34,544.67c-.53-.92-1.06-1.84-1.59-2.76-5.85-9.19-10.68-18.9-14.51-29.1-.43-1-.87-2-1.3-3-2.55-7.99-5.1-15.97-7.64-23.96l.27,.11c5.75,2.47,7.64,8.36,11.22,12.74,8.04,9.83,14.04,21.23,23.15,30.27,1.52,1.51,2.91,3.29,5.46,2.8,4.78,5.71,8.59,12.28,14.91,16.62-.06,.2,0,.36,.17,.48,1.01,.89,2.01,1.78,3.02,2.68,.62,.66,1.25,1.31,1.87,1.97-.12,1.68-1.28,1.94-2.68,2.35-3.74,1.1-4.19,2.99-1.65,6.04,9.62,11.57,23.1,15.75,37.15,10.97,6.06-2.06,12.29-4.41,15.22-11.02l.02-.34c1.84-.04,3.44-.73,4.9-1.8,2.91,.39,5.37-1.25,8.08-1.77,.51,9.36-7.26,13.2-12.57,18.63-1.94,1.98-4.8,2.96-6.36,5.43-2.8,.24-5.6,.57-8.41,.7-11.2,.51-22-1.69-32.6-5.06-1.31-2.41-4.02-2.73-6.09-3.97-12.27-7.34-21.67-17.6-30-28.98Z"/><path class="f" d="M260.43,577.62c10.61,3.37,21.4,5.57,32.6,5.06,2.81-.13,5.6-.46,8.41-.7,11.61-.05,22.74-2.88,32.45-8.82,7.5-4.58,14.45-6.44,22.77-3.65,3.1,1.04,6.43,1.36,9.66,2.01-.09,2.08-1.78,2.62-3.25,3.33-17.04,8.2-35.02,12.74-53.89,13.85-1.5,.09-3.01-.02-4.07,1.34-14.93-2.95-29.86-5.91-44.79-8.86,.03-1.19,.07-2.37,.1-3.56Z"/><polygon class="r" points="124.38 530.82 124.23 530.93 124.36 530.79 124.38 530.82"/><path class="g" d="M397.66,297.18c-.15,.63-.31,1.26-.46,1.89-2.88,5.34-4.25,11.19-5.77,16.99-.1,.66-.2,1.31-.29,1.97-2.01,6.2-4.01,12.41-4.09,19.03-.17,.69-.35,1.38-.52,2.07-.3,.67-.61,1.35-.91,2.02-1.24-.09-2.33,.29-3.1,1.26-6.71,8.46-13.44,16.95-15.94,27.76-1.4,6.04,3.08,10.29,9.27,9.15,2.11-.39,4.2-.89,6.3-1.35,.1,1.02,.21,2.05,.31,3.07-.03,.66-.07,1.32-.1,1.97-1.27,5.25-.27,10.64-.93,15.93-6.35,.53-12.71,1.39-19.06-.03-.09-5.95-.17-11.91-.26-17.86,0-.68,0-1.35,0-2.03,.38-6.67,.77-13.33,1.15-20,.52-.7,.78-1.42,.28-2.25,.85-6.47,1.7-12.94,2.55-19.41l.24-2.28c2.03-5.84,2.62-11.99,3.92-17.98l.25-1.96c1.82-5.71,3.65-11.42,5.47-17.13l.36-1.93c2.7-5.95,5.4-11.9,8.11-17.85,.41-.59,.83-1.18,1.24-1.76,2.16-1.87,2.81-5.08,5.66-6.33,.7,3.5,1.12,7.1,2.18,10.49,1.26,4.05,1.58,8.9,6.79,10.48-.89,2.02-1.77,4.04-2.66,6.06Z"/><path class="l" d="M314.33,243.22c1.41-5.77,6.85-5.64,10.92-6.75,3.54-.97,7.56-.51,11.27,.92,1.51,.58,3.27,.94,4.85,.77,2.17-.23,3.04-.18,4.87,1.97,2.18,2.56,6.97,3.69,10.99,2.37,1.51-.49,2.4-.58,3.46,.54,3.08,3.25,8.07,3.94,11.01,2.79,6.25-2.45,12.08-.75,18.1-.87,4.98-.1,9.79-3.13,12.17-6.84,1.23-1.93,2.49-3.05,4.11-4.09,2.83-1.8,1.62-5.31,3.43-7.46,1.69-2.01,.2-4.15,.39-5.93,.31-2.94,2.6-5.99,4.78-8.33,1.78-1.92,2.68-3.97,3.2-6.69,2,.99,3.09,3.2,5.38,2.6,2.31,5.03-.2,10.04-.06,15.06-.28,.66-.56,1.31-.83,1.96-1.8,5.08-4.36,9.78-7.32,14.27-1.11,.47-1.61,1.34-1.68,2.5-6.95,7.04-15.52,11.67-24.17,16.18-3.06-.02-6.04,.35-8.75,1.93-12.73,2.83-25.31,1.9-37.83-1.33-1.89-.49-3.94-.41-5.91-.6-.17-1.05-.62-1.83-1.72-2.19-6.32-2.09-11.7-6.01-17.57-8.98-1.03-1.26-2.06-2.52-3.09-3.78Z"/><path class="g" d="M317.41,247c5.86,2.98,11.25,6.9,17.56,8.98,1.1,.36,1.55,1.14,1.72,2.19-.6,5.28-1.4,10.55-1.12,15.9-.13,.37-.25,.74-.38,1.12-6.57,0-13.14-.01-19.72-.02-1.01-2.66,.74-5.35-.1-8.01,.91-2.53,1.11-5.1,.53-7.73,.07-.73,.14-1.46,.22-2.18,.06-.65,.11-1.3,.17-1.96-.48-2.88,.98-5.49,1.11-8.29Z"/><path class="p" d="M400.32,291.12c-5.2-1.57-5.52-6.43-6.79-10.48-1.06-3.39-1.48-6.99-2.18-10.49,6.89-4.57,13.25-1.7,15.87,7.17,.02,.6,.05,1.21,.07,1.81-1.61,4.41-4.56,8.05-6.98,11.99Z"/><path class="r" d="M335.2,275.18c.13-.37,.25-.74,.38-1.12,16.7,.8,33.41,1.61,50.11,2.41-.41,.59-.83,1.18-1.24,1.76-16.33-.71-32.66-1.43-48.99-2.14-.14-.29-.23-.6-.25-.92Z"/><path class="r" d="M206.93,509.82c.43,1,.87,2,1.3,3-15.15-2.66-30.31-5.32-45.46-8-1.46-.26-2.89-.67-4.33-1.01,.38-.38,.76-.75,1.13-1.13,5.7,.9,11.39,1.89,17.1,2.66,10.1,1.37,19.96,4.42,30.25,4.47Z"/><path class="h" d="M159.57,502.68c-.38,.38-.76,.75-1.13,1.13-.95,.02-2.04,2.21-2.83-.19,.55-.48,1.09-.96,1.63-1.44,1.08-.67,2.17-1.34,3.25-2-.31,.84-.61,1.67-.92,2.51Z"/><path class="h" d="M149.41,509.91l.09-.1c.56,.33,1.01,.73,.38,1.36-.14,.14-.51,.03-.77,.04,.1-.43,.21-.87,.31-1.3Z"/><path class="r" d="M139.37,516.85l-1,.99-.04-.04c.33-.34,.66-.67,.99-1.01l.05,.05Z"/><polygon class="r" points="138.37 517.85 138.17 517.99 138.33 517.81 138.37 517.85"/><path class="m" d="M383.38,542.91c4.78,.63,9.58,1.17,14.21,2.61-8.33,7.41-15.83,15.76-25.21,22-.69,.46-.85,1.71-1.26,2.59-5.93-1.09-11.85-2.18-17.78-3.26,.11-1.31,.99-1.99,2.04-2.6,4.02-2.31,8.21-4.38,11.96-7.06,5.83-4.17,12.62-7.36,16.04-14.27Z"/><path class="p" d="M318.17,446.92c-.28,.67-.55,1.34-.83,2-11.56,10.73-25.11,16.08-41,15.07-8.57-.26-16.01-3.74-23.12-8.13-7.35-4.54-12.44-11.34-17.84-17.83-.03-.79-.04-1.58-.84-2.05-2.34-4.75-4.68-9.5-7.02-14.24-.27-.68-.54-1.35-.81-2.03,0-.3-.1-.57-.31-.79-.22-.7-.44-1.41-.66-2.11-.44-1.32-.87-2.64-1.31-3.96-.1-.7-.19-1.4-.29-2.1-1.28-6.89-2.56-13.78-3.85-20.67,.62-.7,.91-1.48,.52-2.4,.52-2.55-.78-5.2,.43-7.71,6.42,0,12.83,0,19.25,.01,1.25,3.37-.03,6.93,.77,10.33-.59,2.39-.11,4.68,.68,6.93,.53,5.76,1.56,11.38,4.56,16.46-.04,.88,.01,1.72,.8,2.31,3.06,8.83,7.52,16.56,15.19,22.42,3.98,3.04,8.67,2.82,12.89,4.49-.07,.13-.14,.26-.21,.39,.05-.15,.1-.3,.15-.44,1.68-.02,3.36-.04,5.04-.06,1.17,.09,2.34,.18,3.52,.27,1.28,.85,2.55,.87,3.82-.03l.34,.11,.35-.08c4.18-.03,7.1-2.58,10.09-5,5.38-3.69,7.99-9.16,9.7-15.19,.3-.66,.59-1.32,.88-1.99,2.18-6.83,4.36-13.67,3.25-21.01,.27-.65,.54-1.29,.81-1.94,.35-4.01,.7-8.02,1.05-12.03l-.06-9.7c.05-.74,.1-1.48,.14-2.22,.09-3.01,.18-6.03,.27-9.04,6.57,0,13.13,0,19.7,0,.13,2.34,.25,4.68,.38,7.02,.02,1.63,.03,3.25,.05,4.88-.03,.71-.06,1.43-.09,2.14-.14,2.95-.28,5.89-.43,8.84-1,3.42-.33,6.94-.67,10.4-.18,1.84,.86,2.59,2.7,2.75,4.44,.39,8.87,.94,13.3,1.42,2.19,1.03,4.88-.17,6.93,1.52l-.02,.03-7.99,.08c-3.61-.42-7.23-.81-10.83-1.27-2.81-.36-4.29,.66-4.65,3.62-.51,4.09-1.33,8.15-2.02,12.22-.56,1.67-1.95,3.16-1.16,5.13-.05,.44-.1,.87-.15,1.31-3.34,7.52-5.96,15.4-11.36,21.85Z"/><path class="p" d="M362.37,398.93c6.35,1.42,12.71,.56,19.06,.03,.4,2.33,.8,4.66,1.21,7-2.15,5.1-.97,10.44-.98,15.66-.02,7.94,.21,7.99,7.83,9.05,2.28,.32,4.61,.27,6.91,.38,8.79,1.66,17.66,2.6,26.58,3.18,10.7,1.79,21.45,3.15,32.27,3.91,.36,.25,.73,.5,1.09,.74-.01,.34-.02,.68-.04,1.03-1.33-.01-2.66-.02-3.99-.03l-67.88-8.16c-2.97,.22-2.01,2.55-2.04,4.12-.13,6.74-.1,13.48-.13,20.22,.03,.62,.07,1.24,.1,1.86-.72,7.28-.59,14.65-2.21,21.84-2.01-.5-1.54-2.18-1.78-3.59-1.4-8.11-2.88-16.19-9.32-22.21-1.86-1.74-3.81-3.14-6.47-3.16-.12-7.24-.24-14.47-.36-21.71,.04-.71,.09-1.43,.13-2.14,.67-5.9-1.75-11.62-1-17.51,.49-3.87-1.53-4.96-4.97-4.52-.07-.31-.08-.62-.04-.93l.02-.03c3.9,.58,6.4-.5,6.01-5.03Z"/><path class="j" d="M380.15,479.76c1.62-7.19,1.49-14.56,2.21-21.84,18.05,2.36,36.09,4.71,54.14,7.09,1.31,.17,2.58,.58,3.87,.88-.35,2.78-2.77,4.03-4.4,5.85-4.95,5.52-11.31,9.82-14.52,16.84-12.28-1.88-24.56-3.83-36.86-5.56-2.29-.32-3.7-1.15-4.44-3.25Z"/><path class="j" d="M403.16,513.94c-7.72-1.07-15.43-2.15-23.15-3.21-2.77-.38-2.97-2.29-2.64-4.42,.97-6.38,2.02-12.76,3.02-19.14,.55-3.5,3.2-2.31,5.08-2.04,10.66,1.53,21.3,3.24,31.95,4.89-4,8.42-8.77,16.39-14.26,23.92Z"/><path class="l" d="M360.77,482.76c.16-1.05,.32-2.1,.48-3.15,.2-5.92,.4-11.84,.6-17.76,5.62,1.68,6,6.73,6.37,11.1,.91,10.6-.26,21.13-2.8,31.48-3.03,12.38-6.59,24.55-13.14,35.66-2.2,3.73-4.65,7.26-7.39,10.56-4.05,4.88-7.18,5.21-14.58,2.09,.39-.59,.78-1.18,1.17-1.77,6.06-3.23,9.66-8.77,13.38-14.2,.2-.67,.4-1.34,.6-2.01,4.13-4.11,5.38-9.61,7.15-14.86,1.7-3.37,2.63-6.97,3.24-10.66,.18-.79,.36-1.58,.55-2.37,2.57-6.08,2.88-12.6,3.7-19.02l.66-5.07Z"/><path class="j" d="M386.22,541.04c-5.24-.77-10.47-1.63-15.72-2.28-2.57-.32-3.06-1.49-2.14-3.68,2.84-6.72,5.49-13.51,7.03-20.66,.38-1.77,1.24-2.42,3.17-2.08,8.29,1.48,16.61,2.8,24.91,4.19-4.03,5.81-7.54,11.96-12.31,17.3-1.87,2.1-4.52,4-4.95,7.21Z"/><path class="f" d="M361.85,461.85c-.2,5.92-.4,11.84-.6,17.76-10.02-1.49-20.05-2.97-30.07-4.46,.12-1.83,.57-3.58,1.67-5.05,3.94-5.28,5.31-11.46,6.43-17.75,5.43,.66,10.85,1.67,16.3,1.89,5.37,.21,7.89,2.02,6.27,7.61Z"/><path class="i" d="M276.34,463.99c15.89,1.02,29.44-4.33,41-15.07,2.08,1.8,4.9,.28,7.09,1.58,.86,8.31-1.81,15.66-6.19,22.53-14.04-1.53-28-3.54-41.88-6.13,0-.97-.02-1.95-.02-2.92Z"/><path class="f" d="M362.21,429.1c.12,7.24,.24,14.47,.36,21.71-1.04,3.8-4.05,2.13-6.15,1.88-7.02-.81-13.99-1.99-20.98-3.02-1.13-7.88,2.42-13.27,8.98-17.19,1.91-1.14,4.3-1.91,4.95-4.5,4.28,.37,8.56,.75,12.84,1.12Z"/><path class="n" d="M331.49,550.96c-.39,.59-.78,1.18-1.17,1.77-3.32,1.73-6.63,3.46-9.94,5.19-2.71,.52-5.17,2.15-8.08,1.77-.9-.32-1.78-.75-2.71-.94-6.73-1.36-13.46-2.67-20.19-3.99-.11-1.63-1.08-2.81-2.29-3.68-9.18-6.57-12.97-15.48-11.69-26.61,2.99,.48,5.99,.96,8.98,1.44,.38,2.85-2.42,4.95-1.55,8.12,1.5,5.48,4.6,9.62,9.48,12.17,9.48,4.95,19.71,5.29,30.08,4.06,3.1-.37,6.2-1.35,9.1,.7Z"/><path class="m" d="M421.44,488.57c3.21-7.02,9.57-11.32,14.52-16.84,1.63-1.82,4.05-3.06,4.4-5.85,6,.73,12,1.45,18,2.18-3.69,5.19-9.58,7.78-14.14,11.92-3.44,3.12-8.02,5.4-8.85,10.71-4.64-.71-9.29-1.41-13.93-2.12Z"/><path class="n" d="M349.37,427.97c-.65,2.59-3.04,3.36-4.95,4.5-6.56,3.92-10.11,9.31-8.98,17.19-5.77-.83-11.66-.92-17.27-2.74,5.4-6.45,8.02-14.33,11.36-21.85,6.61,.97,13.23,1.93,19.84,2.9Z"/><path class="m" d="M386.22,541.04c.43-3.22,3.07-5.12,4.95-7.21,4.77-5.34,8.28-11.48,12.31-17.3,3.95,.61,7.9,1.22,11.85,1.82-1.99,7.61-7.91,12.88-11.68,19.43-1.15,2-2.68,3.77-4.05,5.65-4.51-.55-9.02-1.02-13.38-2.4Z"/><path class="n" d="M383.38,542.91c-3.41,6.91-10.2,10.1-16.04,14.27-3.75,2.68-7.94,4.75-11.96,7.06-1.06,.61-1.93,1.28-2.04,2.6-2.17-.03-4.27-.4-6.31-1.45,.46-2.15,2.38-3.09,3.74-4.37,5.11-4.82,9.23-10.34,12.33-16.6,1.64-3.3,3.44-5.12,7.63-3.81,4.06,1.27,8.42,1.58,12.65,2.31Z"/><path class="m" d="M403.16,513.94c5.49-7.54,10.26-15.5,14.26-23.92,4.66,.65,9.31,1.31,13.96,1.96-.9,5.29-5.34,8.53-7.61,13.05-1.98,3.94-5.13,7.25-6.36,11.61-4.75-.9-9.5-1.8-14.25-2.69Z"/><path class="n" d="M318.24,473.04c4.38-6.87,7.05-14.22,6.19-22.53,4.95,.61,9.9,1.23,14.85,1.84-1.12,6.28-2.49,12.47-6.43,17.75-1.1,1.48-1.55,3.22-1.67,5.05-4.38-.32-8.7-.96-12.94-2.11Z"/><path class="m" d="M464.37,441.52c3.98,.44,7.97,.88,11.95,1.32-.88,4.32-4.65,6.64-6.95,9.98-3.06,4.46-6.16,8.91-9.24,13.36-3.59-.48-7.18-.97-10.76-1.45-.3-2.51,1.64-3.74,2.97-5.38,4.52-5.59,9.15-11.13,12.03-17.83Z"/><path class="n" d="M387.05,337.05c.08-6.62,2.08-12.83,4.09-19.03,24.73,1.68,49.47,3.37,74.2,5.05-.41,5.5,4.78,7.58,7.08,11.44,1.84,3.09,4.53,5.69,4.92,9.53-4.33-.34-8.66-.68-12.99-1.03-.75-3.66-3.92-4.71-6.72-5.98-15.32-6.94-31.3-5.9-47.28-3.37-3.86,.61-8.4,.28-11.01,4.36-4.1-.32-8.19-.65-12.29-.97Z"/><path class="j" d="M462.37,345.12c5.67,.38,11.34,.75,17.02,1.13,1.2,6.87,.92,13.8,.96,20.72-3.4,.46-6.63-.87-9.98-.98,.33-5.58-1.14-10.64-4.2-15.31-1.23-1.88-3.64-2.96-3.79-5.56Z"/><path class="j" d="M456.34,438.89c-.36-.25-.73-.5-1.09-.74,.17-2.21,1.96-3.34,3.21-4.85,3.95-4.8,7.26-9.89,6.82-16.51,3.23,.18,6.45,.35,9.68,.53,3.48,.6,6.95,1.2,10.43,1.8-2.25,5.68-5.82,10.58-9.34,15.48-1.26,1.76-2.46,3.46-2.93,5.59-5.64,.25-11.11-1.83-16.77-1.28Z"/><path class="p" d="M334.24,38.64c-15.37-18.64-35.59-21.13-57.71-17.3-2.8-5.66-2.16-7.06,4.13-9.04,18.26-5.75,41.21,1.61,52.81,17.03,2.15,2.85,3.96,5.93,.76,9.31Z"/><path class="p" d="M241.42,49.57c-5,7.97-8.8,16.52-12.18,25.27-.75,1.94-1.15,4.12-2.83,5.61,.72-11,2.92-21.47,11.12-29.65,.97-.97,1.86-3.22,3.9-1.24Z"/><path class="l" d="M223.23,93.27c-.67,2.37-1.34,4.75-2.01,7.12-.79-4.78-2.67-9.65,1.02-14.11,.6,2.29-.59,4.83,.98,6.99Z"/><path class="p" d="M226.43,80.4c0,.34,.01,.68,.02,1.01-.11-.24-.25-.46-.32-.71-.02-.07,.19-.2,.3-.3Z"/><path class="n" d="M487.21,391.27c-6.68-.33-13.35-.85-19.93-2.15,1.39-6.95,2.78-13.91,4.17-20.86,4.64,.48,9.27,.96,13.91,1.44-2,7.41-.03,14.49,1.85,21.57Z"/><path class="n" d="M489.17,417.2c-4.68-.35-9.35-.7-14.03-1.05-.28-.06-.54-.15-.8-.27,1.96-7.88,1.03-15.77,.05-23.66,6.67,.66,13.34,1.32,20.01,1.97,1.18,8.33-1.59,15.76-5.23,23Z"/><path class="p" d="M187.15,386.21l.15-2.18c-.04-5.06-.08-10.12-.11-15.18,6.34-.99,12.67,.34,19.01,.12,.44,5.96,.88,11.92,1.31,17.89-.02,.73-.04,1.45-.06,2.18-.29,6.64,.29,13.23,1.03,19.81-.01,.73-.02,1.45-.04,2.18,.69,7.31,1.39,14.62,2.08,21.92-.37,3.09,0,6.1,1.09,9.02-.97,3.08,.93,5.93,.74,8.95-8.21,2.77-11.73,9.13-12.92,17.13-.3,2.01-.31,3.97-2.27,5.17-2.45-5.14-2.66-10.81-3.79-16.26,.03-1.06,.45-2.2-.59-3.07-.82-6.97-1.64-13.95-2.46-20.92-.13-.93-.26-1.85-.39-2.78-.57-7.35-1.14-14.71-1.71-22.06-.18-.69-.35-1.37-.53-2.06-.18-6.62-.36-13.23-.54-19.85Z"/><path class="e" d="M159.57,502.68c.31-.84,.61-1.67,.92-2.51,5.05-3.82,10.08-7.66,12.79-13.66,6.06,.11,12.12,.18,18.18,.36,2.68,.08,5.28-.21,7.82-1.03,2.55,7.99,5.1,15.97,7.64,23.96-10.3-.05-20.15-3.1-30.25-4.47-5.72-.77-11.4-1.77-17.1-2.66Z"/><path class="j" d="M173.28,486.52c-2.72,6-7.74,9.84-12.79,13.66-1.08,.67-2.17,1.34-3.25,2.01-1.02-.31-2.05-.63-3.07-.94,4.44-4.63,8.85-9.29,13.32-13.89,1.66-1.71,3.48-3.19,5.79-.83Z"/><path class="k" d="M203.72,204.63c-.35,.08-.82,.34-1.18,.23-.23-.07-.34-.68-.38-1.06,0-.08,.54-.32,.81-.3,.53,.04,.9,.33,.74,1.13Z"/><path class="j" d="M355.87,509.22c-.61,3.7-1.55,7.3-3.25,10.67-9.87,2.81-19.16,7.46-29.38,9.13-.4,.06-.71,.65-1.06,1-21.72-3.23-43.38-6.84-64.89-11.26,.56-3.99,2.27-7.58,3.65-11.31,1.53-4.14,4.55-7.8,4.36-12.54,1.82,.08,3.66,0,5.44,.28,11.75,1.87,23.49,3.81,35.23,5.73,16.64,2.73,33.41,4.64,49.89,8.3Z"/><path class="m" d="M331.49,550.96c-2.89-2.05-6-1.07-9.1-.7-10.37,1.23-20.6,.89-30.08-4.06-4.88-2.55-7.98-6.68-9.48-12.17-.87-3.17,1.94-5.26,1.55-8.12,19.74,3.36,39.49,6.72,59.23,10.11,.45,.08,.84,.48,1.26,.74-3.72,5.43-7.32,10.97-13.38,14.2Z"/><path class="f" d="M215.05,464.74c-1.19-3.79,.13-4.61,3.93-3.98,14.84,2.43,29.72,4.58,44.59,6.84-3.23,7.71-7.65,14.89-10.25,22.87-10.97-1.64-21.94-3.27-32.91-4.9l-5.36-20.82Z"/><path class="f" d="M212.35,450.9c.19-3.02-1.71-5.87-.74-8.95,2.55-1.36,3.28-4.44,5.62-5.99,6.02,.88,12.01,2.13,18.14,2.07,5.4,6.49,10.49,13.28,17.84,17.83,7.11,4.4,14.55,7.87,23.12,8.13,0,.97,.02,1.95,.02,2.92-15.86-1.36-31.49-4.34-47.24-6.45-3.12-.42-6.22-1.28-9.33-1.3-4.58-.02-6.83-1.83-6.65-6.5,.02-.58-.51-1.17-.78-1.76Z"/><path class="j" d="M275.41,524.47c-1.27,11.14,2.51,20.04,11.69,26.61,1.21,.87,2.18,2.05,2.29,3.68-1.46-.19-2.93-.32-4.38-.57-10.19-1.77-20.23-4.33-30.55-5.34-.18-.12-.23-.28-.17-.48-1.01-9.18-1.84-18.36,.98-27.4,6.72,1.17,13.43,2.33,20.15,3.5Z"/><path class="i" d="M284.31,470.9c9.15,.57,18.17,2.05,27.15,3.83-4.42,7.38-7.36,15.12-6,23.94-10.05-1.63-20.11-3.27-30.16-4.91,.2-2.51,1.16-4.79,2.15-7.06,2.3-5.26,5.34-10.2,6.87-15.79Z"/><path class="f" d="M244.36,516.82c-3.23-.47-6.44-1.09-9.68-1.38-3.56-.32-5.62-2.14-6.46-5.51-2.1-7.57-5.9-14.62-6.99-22.51,10.43,1.71,20.86,3.41,31.28,5.12-2.87,8.04-6.33,15.89-8.15,24.28Z"/><path class="m" d="M360.77,482.76c-.22,1.69-.44,3.38-.66,5.07-3.14,.66-4.43,3.37-5.88,5.69-2.84,4.53-8.14,6.58-10.91,11.12-8.96-1.34-17.92-2.68-26.88-4.01-2.12-7.53-1.38-14.58,3.41-21.02,.76-1.02,1.06-2.38,1.57-3.58,3.37,.44,6.73,.88,10.1,1.32-1.77,3.55-4.67,6.45-5.67,10.46-1.49,5.98,2.51,10.66,8.6,10.01,7.34-.79,17.53-10.16,18.03-17.23,2.81,.54,6.08-.64,8.29,2.18Z"/><path class="f" d="M352.48,480.58c-.51,7.07-10.69,16.44-18.03,17.23-6.09,.65-10.09-4.03-8.6-10.01,1-4.02,3.9-6.91,5.67-10.46,6.99,1.08,13.97,2.16,20.96,3.24Z"/><path class="m" d="M255.26,520.97c-2.81,9.05-1.98,18.22-.98,27.4-6.32-4.33-10.13-10.9-14.91-16.62-2-3.78-4.04-7.55-5.97-11.36-.48-.94-1.6-2.02-.53-3.11,.77-.79,1.88-.19,2.84,0,6.51,1.24,13.02,2.47,19.54,3.7Z"/><path class="m" d="M244.36,516.82c1.81-8.4,5.28-16.24,8.15-24.28,4.34,.39,8.67,.82,12.79,2.37,.19,4.74-2.82,8.4-4.36,12.54-1.38,3.73-3.1,7.32-3.65,11.31-4.42,.08-8.64-1.18-12.93-1.94Z"/><path class="m" d="M253.32,490.47c2.6-7.99,7.02-15.17,10.25-22.88,3.57,.5,7.14,1,10.71,1.5,.25,2.11-.98,3.74-1.79,5.51-2.64,5.79-6.14,11.17-8.15,17.26-3.67-.46-7.35-.93-11.02-1.39Z"/><path class="j" d="M321.42,476.03c-.51,1.2-.81,2.56-1.57,3.58-4.79,6.44-5.53,13.49-3.41,21.02-3.66-.66-7.33-1.31-10.99-1.97-1.35-8.82,1.59-16.56,6-23.94,3.37,.06,6.71,.39,9.97,1.3Z"/><path class="j" d="M264.34,491.87c2.01-6.09,5.51-11.47,8.15-17.26,.81-1.77,2.03-3.4,1.79-5.51,3.33,.68,6.83,.38,10.03,1.8-1.53,5.6-4.56,10.54-6.87,15.8-1,2.27-1.96,4.55-2.15,7.06-3.7-.32-7.41-.6-10.95-1.89Z"/><path class="l" d="M221.22,487.41c1.09,7.89,4.89,14.93,6.99,22.51-6.68-6.37-10.65-14.45-14.21-22.74-2.56-5.96-3.59-12.22-2.72-18.76,.32-2.42,1.44-3.55,3.77-3.68,1.78,6.94,3.57,13.88,5.36,20.82,.27,.61,.55,1.23,.82,1.84Z"/><path class="m" d="M322.18,530.01c.35-.34,.66-.93,1.06-1,10.22-1.67,19.51-6.32,29.38-9.13-1.77,5.25-3.01,10.75-7.15,14.86-7.76-1.58-15.52-3.16-23.29-4.74Z"/><path class="o" d="M168.34,190.46c-7.32-4.18-13.03-9.76-15.63-18.01-.53-1.69-1.16-3.43-.58-5.26,2.82,.24,4.4,2.41,5.84,4.31,4.24,5.6,9.86,8.52,16.59,10.04,13.01,2.94,24.72-6,24.81-19.14,.01-1.93-.89-4.45,.89-5.67,4.01-2.72,3.01-6.17,2.16-9.75,3.55,.4,5.83,3.25,8.89,4.59l2.04,1.71c.85,.99,1.71,1.97,2.56,2.96,9.74,11.24,8.48,24.75-3.12,33.49-1.04,.78-2.07,1.58-3.11,2.37-14.03,5.68-27.81,5.2-41.34-1.64Z"/><path class="g" d="M202.43,146.98c.85,3.59,1.85,7.04-2.16,9.75-1.79,1.21-.88,3.73-.89,5.67-.09,13.14-11.8,22.09-24.81,19.14-6.72-1.52-12.35-4.44-16.59-10.04-1.44-1.9-3.01-4.07-5.84-4.31-1.48-7.3,2.72-12.18,7.23-16.93,1.11-.89,2.22-1.79,3.33-2.68,11.24-5.92,22.93-6.68,34.99-3,1.7,.52,3.55,.85,4.74,2.41Zm-8.49,3.23c-3.92-2.64-4.74-2.89-7.98-2.28-2.32,.44-4.55,.53-6.85-.32-7.64-2.82-18.03,1.17-21.84,8.34-1.24,2.33-2.07,5.19,.79,6.51,3.54,1.63,5.63,4.52,8.07,7.17,3.09,3.36,6.98,5.23,11.38,5.4,8.97,.36,16.87-6.39,13.23-15.25-2.04-4.98-1.6-7.52,3.19-9.57Z"/><path class="k" d="M162.7,147.57c-1.11,.89-2.22,1.79-3.33,2.68-3.16-1.36-4.69-3.82-4.83-7.2-.07-1.62,.16-3.42-2.17-3.73,.72-1.24,1.23-2.53,1-4,.89-.64,1.77-1.27,2.66-1.91-.19,3.67,5.7,.87,5.26,4.98-.21,1.95,.04,3.95,.08,5.92l.02-.02c-2.19-1.17-1.78-3.34-2.03-5.26-.12-.9-.67-1.58-1.65-1.43-.97,.14-1.13,1-1.32,1.85-1.31,5.65,.29,7.73,6.32,8.11Z"/><path class="k" d="M213.35,153.28c-.68-.57-1.36-1.14-2.04-1.71,1.74-3.99,4.3-6.98,9.02-7.3l.06,.07c-2.14,3.15-6.8,4.3-7.04,8.94Z"/><path class="k" d="M203.33,138.3c1.73-2.73,3.36-5.29-1.04-7.35-1.45-.68-1.22-2.47-.07-3.76l.25,.22c-.15,2.32,1.85,2.84,3.24,3.85,2.05,1.5,1.14,3.38,.97,5.3-.22,2.49-2.04,1.46-3.24,1.81l-.1-.08Z"/><path class="k" d="M203.44,138.39c-.04,2.32-.96,3.91-3.82,4.67,.55-2.63,2.19-3.65,3.72-4.75l.1,.08Z"/><path class="k" d="M222.65,138.05c.95,.37,1.91,.73,2.86,1.1-1.04,1.06-2.08,2.13-3.13,3.19l-.05-.04c.1-1.42,.21-2.83,.31-4.25Z"/><path class="k" d="M152.37,133.33c-1.72-2.14-.63-4.68-1.01-7.01,1.8,2.13,.64,4.68,1.01,7.01Z"/><path class="k" d="M161.36,144.32l.61,.63-.42,.23-.18-.88-.02,.02Z"/><path class="k" d="M153.38,135.33c-.33-.67-.67-1.33-1-2,.33,.67,.67,1.33,1,2Z"/><path class="k" d="M202.71,126.07c.27,.05,.5,.18,.69,.37-.31,.33-.62,.65-.93,.98l-.25-.22c.16-.38,.33-.76,.49-1.13Z"/><path class="k" d="M220.33,144.27c.33-.34,.66-.68,.99-1.01l.09,.1c-.34,.33-.68,.66-1.02,.98l-.06-.07Z"/><path class="k" d="M221.32,143.26c.34-.32,.68-.64,1.01-.97l.05,.04c-.33,.34-.65,.68-.98,1.02l-.09-.1Z"/><path class="d" d="M221.41,143.36c.33-.34,.65-.68,.98-1.02,1.04-1.06,2.08-2.13,3.13-3.19,.26,.11,.5,.24,.74,.39,1.15,2.24,.49,5.44,3.59,6.67,.3,.12,.66,1.02,.55,1.14-2.39,2.49-1.88,5.33-1.89,8.49,0,4.05,.04,7.27,4.42,8.83,.51,.18,1.05,.83,1.2,1.36,1.24,4.51,1.65,9.46,.46,13.63-1.34,4.71-5.07,8.36-9.52,11.49-3.18,2.23-6.84,.84-9.76,3.35-1.47,1.26-3.45-2.08-5.63-2.38,1.03-.79,2.07-1.59,3.11-2.37,11.6-8.73,12.86-22.25,3.12-33.49-.85-.99-1.71-1.97-2.56-2.96,.24-4.64,4.91-5.79,7.04-8.94,.34-.33,.68-.66,1.02-.98Z"/><path class="d" d="M144.38,197.25c-.34-1.33-.68-2.66-1.01-4h.01c2.05-1.05,3.19-2.63,3-5.01v.02c5.48-.31,10.83-.03,15.95,4.03-5.17,1.97-10.02,3.41-14.16,6.36-.97,.69-1.88-.17-2.8-.42l.02,.02c-.34-.34-.68-.68-1.02-1.02l.02,.02Z"/><path class="l" d="M165.76,199.86c-.18,.44-.3,.95-.41,.95-.43-.02-.86-.19-1.29-.3,.11-.28,.2-.77,.35-.79,.42-.06,.87,.08,1.35,.15Z"/><path class="q" d="M245.52,143.48c.39,.16,.78,.32,1.17,.48-.39-.16-.78-.32-1.17-.48Z"/><path class="k" d="M132.37,148.31c6.35,1.68,5.98-3.36,7-6.99q7,1.26,7.24-5.54c2.58,1.03-.52,5.87,3.76,5.54-.72,1.25-1.86,1.95-3.25,1.89-3.76-.17-6.49-.03-7.73,4.92-.91,3.61-4.56,1.55-7.02,.18Z"/><path class="k" d="M146.38,188.25c.19,2.38-.95,3.96-3,4.99,.19-1.62-.65-2.68-2.02-3.47,1.74-.53,3.38-1.02,5.02-1.52Z"/><path class="k" d="M149.38,184.26c-.97-1.3-2.41-1.94-4.18-2.59,2.76-.74,4.22-.14,4.17,2.6h0Z"/><path class="k" d="M138.82,188.57l-.13-.44,.3-.08-.16,.52Z"/><path class="k" d="M131.37,147.31c.34,.34,.67,.67,1.01,1.01-.34-.34-.67-.67-1.01-1.01Z"/><path class="k" d="M150.37,141.32c.34-.34,.67-.67,1.01-1.01-.34,.34-.67,.67-1.01,1.01Z"/><path class="k" d="M151.37,140.33c.34-.34,.67-.67,1.01-1.01-.34,.34-.67,.67-1.01,1.01Z"/><path class="m" d="M207.52,386.85c-.44-5.96-.88-11.92-1.31-17.89,.11-.94,.22-1.89,.33-2.83,4.77,.32,9.53,.65,14.3,.97,.14,4.29,.27,8.57,.41,12.86-1.21,2.51,.08,5.16-.43,7.71-4.51,1.01-8.84-.94-13.29-.83Z"/><path class="m" d="M206.98,364.05c-.18-5.99-.36-11.98-.54-17.98,4.8-.49,9.51,.49,14.25,.94l.06,18.04c-4.65,.51-9.17-.85-13.78-1.01Z"/><path class="m" d="M206.54,333.45c1.66-2.53,3.33-5.06,4.99-7.59,3.04,.17,6.09,.33,9.13,.5l-.14,18.63c-4.67-.36-9.35-.72-14.02-1.08,.01-3.49,.03-6.98,.04-10.46Z"/><path class="r" d="M206.98,364.05c4.6,.16,9.12,1.51,13.77,1.01,.54,.66,.37,1.35,.08,2.05-4.77-.32-9.53-.65-14.3-.97,.15-.69,.3-1.39,.45-2.08Z"/><path class="r" d="M206.5,343.92c4.67,.36,9.35,.72,14.02,1.08,.6,.63,.84,1.29,.18,2.02-4.74-.45-9.45-1.43-14.25-.94l.05-2.16Z"/><path class="d" d="M304.07,177.13c1.51-1.96,3.02-3.92,4.53-5.88,.93-.03,1.85-.05,2.78-.08,.82,.17,1.65,.34,2.47,.51,.67,1.33,1.35,1.38,2.04,.02l.41,.07,.37-.19c2.89,.13,5.78,.26,8.67,.39,.25,2.39-1.01,4.31-2,6.31h.02c-.34,.32-.68,.66-1.02,1l.02-.02c-.34,.34-.68,.68-1.01,1.01h.02c-2.16,.36-3.05-1.01-3.71-3.11,.1,5.07-2.88,4.54-5.76,3.63-1.52-.48-2.77-1.76-4.55-1.53h.02c-.6-1.46-1.85-1.94-3.3-2.13Z"/><path class="g" d="M313.85,171.69c-.82-.17-1.65-.34-2.47-.51,.1-.68,.19-1.36,.29-2.04,2.02,.1,4.06,.15,5.01,2.44l-.37,.19-.41-.07c-.68,0-1.36,0-2.04-.01Z"/><path class="g" d="M309.41,167.41c0,.25,0,.5-.01,.75-1.09,0-2.29,.29-2.96-.95-.06-.12,.22-.59,.41-.64,1.01-.27,1.89,.02,2.56,.85Z"/><path class="i" d="M462.37,345.12c.15,2.6,2.56,3.68,3.79,5.56,3.06,4.68,4.53,9.74,4.2,15.31-14.8-1.26-29.6-2.52-44.4-3.76-12.67-1.07-25.34-2.12-38.02-3.14-1.31-.11-2.65,.04-3.97,.06-.87-.78-.63-1.76-.49-2.73,.72-5.09,1.43-10.18,2.14-15.28,.3-.67,.61-1.35,.91-2.02,15.03,1.25,30.05,2.52,45.08,3.72,10.25,.82,20.51,1.52,30.76,2.27Z"/><path class="j" d="M382.47,381.05c-.1-1.02-.21-2.05-.31-3.07,.46-5.66,.92-11.33,1.38-16.99,17.82,1.4,35.64,2.8,53.46,4.24,.8,.06,1.56,.5,2.35,.77,3.74,6.77,3.7,13.71,.93,20.77-3.99-.33-7.97-.65-11.96-.98,4.21-11.11,1.59-14.63-10.57-14.85-4.86-.09-9.68,.4-14.28,1.42-6.66,1.49-13.84,2.5-18.28,8.83-.9-.05-1.81-.09-2.71-.14Z"/><path class="i" d="M440.26,386.76c2.77-7.06,2.81-14-.93-20.77,10.76-.08,21.39,1.83,32.11,2.26-1.39,6.95-2.78,13.91-4.17,20.86-9.07-.06-18-1.67-27.01-2.36Z"/><path class="o" d="M383.53,360.99c-.46,5.66-.92,11.33-1.38,16.99-2.1,.45-4.19,.96-6.3,1.35-6.19,1.14-10.67-3.11-9.27-9.15,2.5-10.81,9.23-19.31,15.94-27.76,.77-.97,1.86-1.35,3.1-1.26-.71,5.09-1.42,10.19-2.14,15.28-.14,.97-.38,1.95,.49,2.73-.15,.61-.3,1.22-.45,1.84Z"/><path class="i" d="M437.31,389.02c8.46-.23,16.75,1.5,25.12,2.21-1.09,8.13,.94,15.87,2.91,23.62-18.69-2.01-37.38-4.02-56.06-6.03,2.6-4.01,7.49-3.51,11.1-5.6,6.51-3.77,13.35-6.99,16.93-14.19Z"/><path class="m" d="M382.63,405.95c-.4-2.33-.8-4.66-1.21-7,.67-5.29-.34-10.68,.93-15.93,13.65,1.39,27.29,2.78,40.94,4.16-.54,3-3.02,4.08-5.26,5.5-7.24,4.59-15.78,5.9-23.44,9.39-2.02,.92-4.66,1.12-5.21,3.99-2.25-.04-4.5-.08-6.75-.12Z"/><path class="m" d="M385.18,381.19c4.44-6.33,11.62-7.35,18.28-8.83,4.6-1.03,9.42-1.51,14.28-1.42,12.15,.22,14.77,3.74,10.57,14.85-12.78-1.27-25.55-2.53-38.33-3.81-1.61-.16-3.34,.31-4.8-.79Z"/><path class="j" d="M389.38,406.07c.55-2.87,3.19-3.07,5.21-3.99,7.67-3.49,16.2-4.8,23.44-9.39,2.24-1.42,4.73-2.5,5.26-5.5,4.63,.91,9.48,.22,14.02,1.83-3.58,7.2-10.42,10.42-16.93,14.19-3.61,2.09-8.5,1.59-11.1,5.6-2.63-.05-5.28-1.25-7.87,.19-3.68-2.33-8.11-1.55-12.02-2.93Z"/><path class="j" d="M465.34,414.84c-1.96-7.75-4-15.49-2.91-23.62,3.98,.33,7.96,.67,11.95,1,.98,7.89,1.91,15.78-.05,23.66-3-.35-5.99-.69-8.99-1.04Z"/><path class="j" d="M399.34,338.03c2.61-4.08,7.15-3.75,11.01-4.36,15.98-2.53,31.96-3.57,47.28,3.37,2.8,1.27,5.97,2.32,6.72,5.98-21.67-1.66-43.34-3.33-65.01-4.99Z"/><path class="j" d="M452.32,439.88c1.33,.01,2.66,.02,3.99,.03,.05,.29,.09,.59,.1,.88-.29,2.03-1.6,3.53-2.57,5.24-3.89,6.9-10.76,10.99-15.57,17-15.07-1.89-30.14-3.78-45.21-5.67-3.6-.45-7.2-.89-10.8-1.33,.03-6.74,0-13.48,.13-20.21,.03-1.57-.92-3.89,2.04-4.12-.25,4.78,1.91,9.04,3.01,13.52,2.42,9.92,4.11,10.57,13.22,5.53,1.16-.64,2.37-1.21,3.56-1.8,10.1-5.08,19.89-6.41,29.01,2.15,1.66,1.56,3.7,2.04,5.99,.98,5.71-2.66,10.26-6.51,13.09-12.22Z"/><path class="n" d="M438.27,463.04c4.8-6.01,11.68-10.11,15.57-17,.97-1.72,2.28-3.21,2.57-5.24,2.65,.29,5.38-.25,7.97,.73-2.88,6.7-7.5,12.24-12.03,17.83-1.33,1.64-3.28,2.87-2.97,5.38-3.7-.56-7.4-1.13-11.1-1.69Z"/><path class="p" d="M465.34,414.84c3,.35,5.99,.69,8.99,1.04,.26,.11,.53,.2,.8,.27-.06,.39-.12,.77-.18,1.16-3.23-.18-6.45-.35-9.68-.53-3.99-.58-7.97-1.23-12.03-1.02-10.88-1.91-21.89-2.71-32.86-3.85-6.3-1.12-12.81-.92-18.98-2.91,2.59-1.44,5.25-.24,7.87-.19,18.69,2.01,37.38,4.02,56.06,6.04Z"/><path class="k" d="M138.38,140.33l-2.01-1.01c.67,.34,1.34,.67,2.01,1.01Z"/><path class="k" d="M139.38,141.33c-.34-.34-.67-.67-1.01-1.01,.34,.34,.67,.67,1.01,1.01Z"/><path class="k" d="M144.36,197.24c.34,.34,.68,.68,1.02,1.02-.34-.34-.68-.68-1.02-1.02Z"/><path class="o" d="M385.2,230c-8.98,7.16-19.73,7.59-30.05,5.93-8.92-1.43-16.76-6.68-23.69-12.74-4.86-6.89-9.81-13.75-7.94-22.96,1.76,.15,2.46,1.31,3,2.84,3.91,11.04,12.39,16.23,23.43,17.97,7.31,1.15,16.77-3.21,19.57-9.96,2.36-5.7,2.94-12.11,8.26-16.37,.75-.6,.46-2.51,.65-3.81,.95,.55,1.9,1.11,2.85,1.66,.8,.77,.54,2.38,2.07,2.55,1.76,.76,1.71,3.46,3.96,3.71h.01c1.13,4.26,4,7.87,4.51,12.34,.1,.71,.21,1.43,.31,2.14l-.04,2.84c-.15,.71-.3,1.41-.45,2.12-.84,4.63-3.39,8.33-6.47,11.73Z"/><path class="d" d="M323.51,200.23c-1.86,9.21,3.08,16.07,7.94,22.96-6.51,.26-12.48-1.1-17.47-5.1q-.4,2.71,2.81,5.39c-4.2,3-8.64,1.84-12.52,.05-2.13-.98-3.93-1.34-6.07-1.15-.25-.06-.49-.12-.74-.17-.32-.66-.65-1.32-.97-1.97-.97-4.72-1.95-9.43-2.92-14.15,.18-7.75,1.3-15.27,5.67-21.94,1.24,.84,1.02,3.15,3.13,3.13h-.01c1.99,2.78,4.13,4.46,7.02,.98l-.02,.02c.92-3.68,2.75-5.82,7.07-5.25,1.88,.25,3.87-.8,4.95-2.76h-.02c.34-.33,.68-.66,1.01-1l-.02,.02c.34-.34,.68-.68,1.02-1.02h-.02c1.58,.27,2.21,1.35,2.01,2.78-.47,3.35,.82,6.26,2.03,9.22-1.98,3.06-4.13,6.05-3.88,9.97Z"/><path class="j" d="M253.46,252.99c3.1-5.32,6.75-10.22,10.89-14.78,14.76-.02,29.48,1.62,44.25,.96,2.07,1.12,3.07,3.76,5.73,4.05,1.03,1.26,2.06,2.52,3.09,3.78-.13,2.79-1.59,5.41-1.11,8.29-20.97-.11-41.9-1.47-62.84-2.3Z"/><path class="i" d="M297.46,222.21c.25,.05,.5,.11,.74,.17,.87,6.02,5.67,9.81,8.4,14.77-13.53,.63-27-1.07-40.51-.94,3.64-5.11,7.59-9.95,12.19-14.25,6.4,.08,12.79,.16,19.19,.24Z"/><path class="d" d="M381.28,192.56c-.95-.55-1.9-1.11-2.85-1.66-2.09-2.76-5.56-3.55-8.09-5.68,0-3.08,3.85-3.95,4.01-6.94h0c4.49-3.11,4.86-4.89,.93-8.23-2.12-1.8-1.34-2.87-.15-4.43,2.48-3.25,9.81-2.74,11.6,.84,.77,1.53-.96,1.86-1.37,2.83-1.15,1.83-1.44,3.9-1.58,5.99,0,.06,1.04,.41,1.29,.22,2.54-1.94-.37-4.16,.26-6.23,.49,.09,1.19,0,1.42,.3,1.96,2.47,6.41-2.36,7.13,2.08,.45,2.74-.85,5.77-1.34,8.67-.11,.65-.14,1.3-.2,1.96v-.02c-1.25,.08-1.88,.79-2,2.01l.02-.02c-.34,.34-.68,.68-1.02,1.02l.02-.02c-1.13-.03-2.24,0-3.02,1.01h.01c-3.49,.64-3.57,4.04-5.07,6.29Zm.15-15.64l.03-.29-.33,.12,.3,.17Z"/><path class="d" d="M391.84,211.16c-.51-4.47-3.38-8.09-4.51-12.33,.24-.73,.49-1.46,.71-2.2,0-.01-.28-.11-.43-.17-.1,.78-.19,1.57-.29,2.35-2.25-.24-2.2-2.94-3.96-3.71-.04-2.29-.19-4.92,2.5-5.69,3.06-.88-.15-2.22,.5-3.16h-.01c1.12,.02,2.23,0,3.02-1l-.02,.02c.34-.34,.68-.68,1.02-1.02l-.02,.02c1.26-.09,1.9-.79,2.02-2.01v.02c2.49-1.12,1.87-4.09,3.38-5.81,2.19,3.01,.71,7.35,4.32,10.16,1.23,.96-.79,4.73-2.7,6.64-1.24,.09-1.91,.75-2,1.99-1.09,.75-.99,1.89-1,3-.33,.33-.67,.67-1,1-.33,.33-.67,.67-1,1-.6,.07-1.19,.14-1.79,.22l.25,.56c.51-.26,1.02-.53,1.53-.79,.33-.33,.67-.67,1-1,.33-.33,.67-.67,1-1,1.01-.77,1.02-1.88,1-2.99,.67-.66,1.34-1.33,2-1.99,.92,.16,2.8,.29,2.36,1.01-2.28,3.67,.2,6.87,.36,10.27,.24,5.08-4.43,5.67-8.22,6.65Zm-2.02-19.79c-.61,.97-.61,1.86,.05,2.8,.6-.97,.65-1.86-.05-2.8Z"/><path class="d" d="M385.2,230c3.08-3.4,5.62-7.1,6.47-11.73,2.76,.34,3.78,3.11,5.95,4.3,.33,.18,.67,1.08,.52,1.28-2.24,2.96-4.17,6.36-7.01,8.58-1.87,1.47-4.22-.81-5.92-2.42Z"/><path class="r" d="M266.09,236.21c13.51-.13,26.99,1.57,40.51,.94,.67,.67,1.33,1.34,2,2.01-14.77,.66-29.49-.98-44.25-.96,.58-.66,1.16-1.33,1.74-1.99Z"/><path class="d" d="M392.11,216.14l.04-2.84c1.04-.01,2.08,.12,2.05,1.45-.02,1.33-1.05,1.44-2.1,1.39Z"/><path class="g" d="M370.35,185.21c2.53,2.13,6,2.92,8.09,5.68-.19,1.3,.11,3.21-.65,3.81-5.32,4.26-5.9,10.68-8.26,16.37-2.8,6.75-12.26,11.11-19.57,9.96-11.04-1.74-19.53-6.93-23.43-17.97-.54-1.54-1.25-2.69-3-2.84-.25-3.92,1.89-6.92,3.87-9.97,.96-.38,1.63-.99,1.73-2.08,11.95-9.32,24.89-8.88,38.31-3.92,.68,1.21,1.89,.81,2.92,.96Zm-17.05-.85c-7.66-.19-15.13-1.32-21.29,4.59-3.26,3.12-3.58,5.79,.15,8.55,1.37,1.01,2.41,2.15,3,3.82,3,8.47,11.7,13.02,20.3,10.71,5.3-1.42,8.77-6.94,7.2-12.23-1.28-4.32-.96-7.39,4.94-8.26-6.03-5.19-12.67-5.18-20.22-4.84,2.42-2.19,4.4-.68,5.91-2.34Z"/><path class="k" d="M329.12,188.17c-.1,1.09-.77,1.71-1.73,2.08-1.21-2.95-2.5-5.87-2.03-9.22,.2-1.43-.43-2.5-2.01-2.76,.99-2,2.25-3.92,2-6.31,.74-.53,1.44-.38,2.14,.09-2.57,3.8,2.01,2.74,2.87,4.21h0c-3.07,.44-4.83,5.28-3.38,9.27,.41,1.12,1.09,2.02,2.14,2.63Z"/><path class="k" d="M370.35,185.21c-1.03-.15-2.24,.25-2.92-.96,2.49-1.79,3.06-5.79,6.93-5.98-.15,2.99-4,3.86-4.01,6.94Z"/><path class="k" d="M330.36,176.27q.82,2.3,0,4.78v-4.78h0Z"/><path class="g" d="M307.38,561.84c-2.93,6.61-9.16,8.96-15.22,11.02-14.05,4.78-27.54,.6-37.15-10.97-2.54-3.05-2.09-4.95,1.65-6.04,1.4-.41,2.56-.67,2.68-2.35,8.58,5.63,17.74,9.37,28.25,9.35,6.63-.01,13.21-.28,19.79-1.02Z"/><path class="j" d="M307.38,561.84c-6.58,.74-13.16,1.01-19.79,1.02-10.51,.02-19.67-3.73-28.25-9.35-.62-.66-1.25-1.31-1.87-1.97,14.85,1.79,29.4,5.29,44.12,7.82,1.99,.34,4.51-.26,5.8,2.14l-.02,.34Z"/><path class="r" d="M307.4,561.49c-1.3-2.4-3.82-1.8-5.8-2.14-14.72-2.53-29.27-6.03-44.12-7.82-1.01-.9-2.02-1.79-3.02-2.68,10.32,1.01,20.37,3.57,30.55,5.34,1.45,.25,2.92,.38,4.38,.57,6.73,1.32,13.47,2.63,20.2,3.99,.93,.19,1.81,.62,2.71,.94-1.46,1.07-3.06,1.76-4.9,1.8Z"/><path class="j" d="M335.46,276.1c16.33,.71,32.66,1.43,48.99,2.14-2.7,5.95-5.4,11.9-8.11,17.85-6.4-.35-12.88-.2-19.19-1.17-7.35-1.14-14.84,.12-22.1-1.76-.4-5.7-.55-11.39,.39-17.05Z"/><path class="n" d="M375.98,298.02c-1.82,5.71-3.65,11.42-5.47,17.13-2.75-.65-5.53-.85-8.35-1.02-9.23-.53-18.45-1.32-27.68-2.02,.12-5.66-.97-11.36,.74-16.95,13.59,.95,27.17,1.9,40.76,2.85Z"/><path class="n" d="M370.26,317.11c-1.3,5.99-1.89,12.14-3.92,17.98-10.7,.41-21.27-1.33-31.89-2.04-.1-2.01-.2-4.03-.3-6.04,.12-4.27,.24-8.54,.36-12.82,2.77,.26,5.53,.6,8.31,.78,9.16,.58,18.34,.78,27.44,2.14Z"/><path class="m" d="M366.1,337.37c-.85,6.47-1.7,12.94-2.55,19.41-9.69-.63-19.38-1.25-29.08-1.87,.01-6.57,.02-13.15,.03-19.72,10.53,.73,21.06,1.45,31.6,2.18Z"/><path class="i" d="M362.37,398.93c.4,4.53-2.11,5.61-6.01,5.03-2.05-1.69-4.73-.5-6.93-1.52-.4-3.76,.45-7.59-.58-11.32-1.27-4.63-3.39-5.87-8.06-4.74-2.22,.54-4.26,1.9-6.69,1.47,.14-2.95,.28-5.89,.43-8.84,9.27-.44,18.33,2.07,27.57,2.05,.09,5.95,.17,11.91,.26,17.86Z"/><path class="j" d="M334.63,376.87c-.02-1.63-.03-3.25-.05-4.88,7.46-1.56,13.44-6.04,19.73-9.93,1.23-.76,1.96-1.74,2.09-3.17,2.29,.05,4.58,.1,6.86,.15-.38,6.67-.77,13.33-1.15,20-9.16-.72-18.33-1.45-27.49-2.17Z"/><path class="r" d="M375.98,298.02c-13.59-.95-27.17-1.9-40.76-2.85-.52-.63-.71-1.3-.16-2.01,7.25,1.88,14.74,.63,22.1,1.76,6.3,.97,12.78,.82,19.19,1.17-.12,.64-.24,1.29-.36,1.93Z"/><path class="r" d="M370.26,317.11c-9.1-1.36-18.28-1.56-27.44-2.14-2.77-.18-5.54-.52-8.31-.78l-.03-2.07c9.22,.69,18.44,1.48,27.68,2.02,2.82,.16,5.6,.36,8.35,1.02-.08,.65-.17,1.31-.25,1.96Z"/><path class="r" d="M366.1,337.37c-10.53-.73-21.06-1.45-31.6-2.18-.02-.71-.04-1.43-.06-2.14,10.63,.71,21.19,2.45,31.89,2.04-.08,.76-.16,1.52-.24,2.28Z"/><path class="r" d="M363.27,359.03c-2.29-.05-4.58-.1-6.87-.15-7.29-1.1-14.59-2.17-22-1.84,.03-.71,.05-1.43,.08-2.14,9.69,.62,19.38,1.25,29.08,1.87,.5,.82,.23,1.55-.29,2.25Z"/><path class="r" d="M334.63,376.87c9.16,.72,18.33,1.44,27.49,2.17,0,.68,0,1.35,0,2.03-9.24,.01-18.3-2.49-27.57-2.05,.03-.71,.06-1.43,.1-2.14Z"/><path class="o" d="M334.48,312.12c.01,.69,.02,1.38,.03,2.07-.12,4.27-.24,8.54-.36,12.82-6.85-.39-13.05-3.37-19.59-4.99-.1-2.98-.2-5.95-.3-8.93-.02-.7-.03-1.41-.05-2.11,.09-5.6,.19-11.21,.28-16.81,.44-.68,.61-1.38,.18-2.14,.27-5.62,.54-11.24,.81-16.86,6.57,0,13.14,.01,19.72,.02,.03,.32,.11,.63,.25,.92-.95,5.66-.79,11.36-.39,17.05-.55,.72-.36,1.38,.16,2.01-1.71,5.59-.62,11.29-.74,16.95Z"/><path class="j" d="M243.92,269.22c2.24-5.08,5.03-9.83,8.36-14.26,21.28,.75,42.54,2.4,63.85,2.28-.07,.73-.14,1.46-.21,2.18-4.18,3.42-5,9.11-8.71,12.85-21.1-1.02-42.2-2.04-63.29-3.05Z"/><path class="h" d="M307.21,272.28c3.71-3.74,4.53-9.43,8.71-12.85,.58,2.64,.37,5.21-.53,7.74-5.84,7.36-9.81,15.82-14.1,24.08-.32,.64-.64,1.29-.96,1.93-3.29,5.38-6.81,10.64-8.89,16.67-.31,.44-.62,.89-.93,1.33-3.57,5.71-6.97,11.51-9.24,17.89-.27,.58-.55,1.16-.83,1.73-4.41,5.58-7.09,12.13-10.24,18.41l-.92,1.78c-4.06,5.73-7.42,11.85-10.26,18.26-.26,.59-.52,1.18-.78,1.76-4.81,6.13-8.11,13.14-11.73,19.96-.31,.56-.62,1.11-.93,1.67l-3.63,4.59c-.79-2.26-1.27-4.54-.68-6.94,5.91-5.36,8.59-12.76,12.34-19.48,.65-.48,1.38-.9,1.42-1.85,3.22-6.04,6.45-12.08,9.67-18.12,.65-.47,1.33-.92,1.29-1.87,3.24-6.04,6.47-12.08,9.71-18.12,.66-.46,1.35-.9,1.33-1.85,3.05-5.93,6.1-11.86,9.15-17.8,.68-.45,1.01-1.09,.96-1.91,3.82-4.89,5.57-10.92,8.95-16.05,.32-.65,.64-1.3,.97-1.94,3.07-5.68,6.14-11.36,9.21-17.03,.75-.47,.99-1.18,.96-2.01Z"/><path class="j" d="M301.29,291.24c4.3-8.26,8.26-16.72,14.1-24.08,.84,2.66-.91,5.35,.1,8.01-.27,5.62-.54,11.24-.81,16.86-4.49,.09-8.98,.33-13.39-.79Z"/><path class="r" d="M316.13,257.24c-21.32,.12-42.57-1.54-63.85-2.28,.39-.66,.78-1.31,1.18-1.97,20.95,.83,41.87,2.19,62.84,2.3-.06,.65-.11,1.31-.17,1.96Z"/><path class="g" d="M220.7,347.02c.66-.74,.43-1.4-.18-2.02,.05-6.21,.09-12.42,.14-18.63,.35-.75,.46-1.51,0-2.26,.19-4.17,.41-8.33-.19-12.49,.23-5.77,.46-11.54,.69-17.31,6.56-.05,13.13-.1,19.69-.15,.08,3.99,.15,7.99,.23,11.98-.64,.73-.41,1.39,.17,2.01-.47,5.88-.56,11.77-.2,17.67-.32,.75-.47,1.5,.06,2.23-.19,6.32-.52,12.64,.11,18.96-.52,.71-.72,1.45-.28,2.27,0,5.92,.01,11.84,.02,17.76-.51,.75-.39,1.51-.06,2.28-.14,3.56-.28,7.11-.41,10.67-6.42,0-12.83,0-19.25-.01-.14-4.29-.27-8.57-.41-12.86,.29-.69,.46-1.38-.08-2.05-.02-6.01-.04-12.03-.06-18.04Z"/><path class="m" d="M259.01,369.26c2.84-6.41,6.2-12.53,10.26-18.26,15.01,1.36,30.01,2.71,45.02,4.07l.21,9.91c-.09,3.01-.18,6.03-.27,9.04-3.3-.13-6.62-.09-9.9-.4-15.11-1.4-30.21-2.9-45.32-4.36Z"/><path class="g" d="M314.51,364.97c-.07-3.3-.14-6.61-.21-9.91-.02-.72-.04-1.44-.05-2.16l-.08-19.62c.05-.72,.09-1.45,.14-2.17l.26-9.09c6.54,1.62,12.73,4.6,19.59,4.99,.1,2.01,.2,4.03,.3,6.04l.06,2.14c-.01,6.57-.02,13.15-.03,19.72-.03,.71-.05,1.43-.08,2.14-.07,2.64-.13,5.28-.2,7.92-6.57,0-13.13,0-19.7,0Z"/><path class="h" d="M312.3,399.91c1.12,7.34-1.06,14.18-3.24,21.01-9.95-1.35-19.91-2.69-29.87-4.04-.7-7.14,1.49-10.69,8.35-13.84,2.98-1.37,6.41-1.78,8.89-4.2,5.29,.36,10.58,.71,15.86,1.07Z"/><path class="m" d="M241.94,397.24c1.21-1.53,2.42-3.06,3.63-4.59,9.23,1.18,18.47,2.37,27.7,3.55-.31,.73-.42,1.82-.98,2.15-6.38,3.72-7.82,10.06-8.96,16.57-5.61-.41-11.22-.81-16.84-1.22-3-5.08-4.03-10.7-4.56-16.46Z"/><path class="n" d="M314.09,376.24l.06,9.7c-8.45,.49-15.99,4.22-23.88,6.69-1.21,.38-1.84,1.37-1.92,2.66-6.01-.51-12.01-1.01-18.02-1.51,.31-1.69,1.8-2.34,3.01-3.09,7.15-4.43,14.64-8.25,22.36-11.61,1.94-.84,4.24-1.16,4.62-3.84,4.59,.34,9.18,.68,13.77,1.01Z"/><path class="m" d="M280.37,442.82l-5.04,.06,.06,.05c-4.22-1.67-8.9-1.46-12.88-4.49-7.67-5.86-12.14-13.59-15.19-22.42,4.06-.18,8.08,0,12.04,1,.68,8.66,7.27,12.34,13.65,16.24,3.66,2.24,7.56,4.35,7.37,9.56Z"/><path class="m" d="M208.48,408.83c-.74-6.58-1.31-13.17-1.03-19.81,4.35-.56,8.54,.96,12.84,1.05,1.28,6.89,2.56,13.78,3.85,20.67-5.22-.64-10.44-1.27-15.66-1.91Z"/><path class="j" d="M298.47,438.1c-2.99,2.42-5.91,4.97-10.09,5-.65-6.23-4.55-9.99-9.64-13.01-5.08-3.01-10.71-5.58-12.41-12.09,3.97,.42,7.95,.83,11.92,1.25,.26,4.15,3.94,4.95,6.67,6.44,5.57,3.05,10.61,6.55,13.54,12.42Z"/><path class="i" d="M298.47,438.1c-2.93-5.87-7.97-9.37-13.54-12.42-2.73-1.49-6.41-2.28-6.67-6.44,9.97,1.22,19.94,2.44,29.9,3.66-1.7,6.04-4.31,11.5-9.69,15.19Z"/><path class="f" d="M210.53,432.94c-.69-7.31-1.39-14.62-2.08-21.92,5.33,.61,10.65,1.22,15.98,1.83,.44,1.32,.87,2.64,1.31,3.96-.11,.69-.22,1.38-.33,2.07l-.19,.16c-.25,.26-.51,.51-.76,.77l-.22,.21c-.31,.21-.62,.43-.93,.64-2.6,3.36-5.32,6.64-7.75,10.11-1.32,1.89-2.86,2.55-5.02,2.18Z"/><path class="h" d="M334.11,387.85c2.43,.43,4.47-.94,6.69-1.47,4.66-1.13,6.78,.1,8.06,4.74,1.03,3.73,.18,7.56,.58,11.32-4.43-.49-8.86-1.04-13.3-1.43-1.83-.16-2.88-.91-2.7-2.75,.34-3.46-.33-6.99,.67-10.4Z"/><path class="n" d="M266.34,417.99c1.7,6.52,7.33,9.08,12.41,12.09,5.09,3.02,8.98,6.77,9.64,13.01l-.35,.08-.34-.11c-1.27,.01-2.54,.02-3.82,.03-1.17-.09-2.35-.18-3.52-.27,.19-5.22-3.71-7.33-7.37-9.56-6.38-3.9-12.97-7.58-13.65-16.24,2.41-.23,4.7,.36,6.99,.98Z"/><path class="n" d="M334.2,364.97c.07-2.64,.13-5.28,.2-7.92,7.41-.33,14.71,.74,22,1.84-.13,1.43-.86,2.41-2.09,3.17-6.28,3.89-12.27,8.37-19.73,9.93-.13-2.34-.25-4.68-.38-7.02Z"/><path class="i" d="M288.37,395.28c.08-1.29,.71-2.28,1.92-2.66,7.89-2.47,15.43-6.2,23.88-6.69-.35,4.01-.7,8.02-1.05,12.03-8.25-.9-16.5-1.79-24.75-2.69Z"/><path class="i" d="M356.34,403.99c-.04,.31-.03,.62,.04,.93-2.18,5.11-4.41,10.13-9.18,13.57-2.63,1.89-6.02,2.7-7.93,5.6-3.2-.11-6.39-.21-9.59-.32-.79-1.98,.6-3.46,1.16-5.13,8,.38,16.82-6.97,17.51-14.57l7.99-.08Z"/><path class="h" d="M348.35,404.07c-.69,7.6-9.51,14.95-17.51,14.57,.69-4.07,1.52-8.13,2.02-12.22,.37-2.96,1.84-3.98,4.65-3.62,3.61,.46,7.22,.85,10.83,1.27Z"/><path class="m" d="M240.49,379.98c.14-3.56,.28-7.11,.41-10.67,4.23,.51,8.47,1.01,12.7,1.52-3.75,6.72-6.43,14.12-12.34,19.48-.8-3.4,.48-6.96-.77-10.33Z"/><path class="r" d="M288.37,395.28c8.25,.9,16.5,1.79,24.75,2.69-.27,.65-.54,1.3-.81,1.94-5.29-.36-10.58-.72-15.87-1.07-7.67-1.27-15.37-2.31-23.16-2.64-9.23-1.18-18.47-2.36-27.7-3.55,.31-.56,.62-1.12,.93-1.67,7.95,.93,15.89,1.85,23.84,2.78,6.01,.51,12.01,1.01,18.02,1.52Z"/><path class="r" d="M266.34,417.99c-2.29-.62-4.58-1.21-6.99-.98-3.96-1-7.99-1.18-12.04-1-.79-.59-.85-1.43-.81-2.31,5.61,.4,11.22,.81,16.84,1.22,5.19,1.42,10.5,1.87,15.85,1.96,9.96,1.35,19.91,2.69,29.87,4.04-.3,.66-.59,1.32-.89,1.99-9.97-1.22-19.94-2.44-29.91-3.66-3.97-.42-7.95-.83-11.92-1.25Z"/><path class="f" d="M227.51,421.73c2.34,4.75,4.68,9.5,7.02,14.24-5.49,.18-10.86-.71-16.2-1.89,2.1-3.37,4.19-6.73,6.29-10.1,.66-.47,.9-1.1,.71-1.9l.13-.17c.68-.06,1.37-.12,2.05-.18Z"/><path class="r" d="M314.09,376.24c-4.59-.34-9.18-.68-13.77-1.01-14.03-1.4-28.06-2.8-42.09-4.2,.26-.59,.52-1.18,.78-1.76,15.1,1.46,30.21,2.96,45.32,4.36,3.29,.3,6.6,.27,9.9,.4-.05,.74-.1,1.48-.15,2.22Z"/><path class="i" d="M224.63,423.99c-2.1,3.37-4.19,6.73-6.29,10.1-.37,.63-.73,1.25-1.1,1.88-2.35,1.56-3.07,4.63-5.62,5.99-1.09-2.92-1.46-5.92-1.09-9.02,2.15,.37,3.69-.28,5.02-2.18,2.43-3.48,5.15-6.75,7.75-10.11,.31-.21,.62-.43,.93-.64l.22-.21c.25-.25,.51-.51,.76-.77l.19-.16c.33,.01,.66,.03,.99,.04,.21,.22,.31,.48,.31,.79-.41,.74-.82,1.48-1.23,2.21l-.13,.17c-.73,.45-.87,1.12-.71,1.9Z"/><path class="r" d="M329.68,423.76c3.2,.11,6.39,.21,9.59,.32,7.63,1.46,15.32,2.45,23.07,2.87-.04,.71-.09,1.43-.13,2.14-4.28-.37-8.56-.75-12.84-1.12-6.61-.97-13.23-1.93-19.84-2.9,.05-.44,.1-.87,.15-1.31Z"/><path class="r" d="M217.24,435.96c.37-.63,.73-1.25,1.1-1.88,5.33,1.18,10.7,2.07,16.2,1.89,.8,.47,.81,1.26,.84,2.05-6.13,.06-12.11-1.19-18.14-2.07Z"/><path class="r" d="M224.43,412.84c-5.33-.61-10.65-1.22-15.98-1.83,.01-.73,.02-1.45,.04-2.18,5.22,.64,10.44,1.27,15.66,1.91,.09,.7,.19,1.4,.28,2.1Z"/><path class="r" d="M220.29,390.08c-4.3-.09-8.48-1.61-12.84-1.05,.02-.73,.04-1.45,.06-2.18,4.46-.11,8.78,1.84,13.29,.83,.39,.92,.1,1.7-.52,2.4Z"/><path class="j" d="M283.88,443.09c1.27-.01,2.54-.02,3.82-.03-1.26,.91-2.54,.89-3.82,.03Z"/><path class="h" d="M225.47,421.92c.41-.74,.82-1.48,1.23-2.21,.27,.68,.54,1.35,.81,2.03-.68,.06-1.37,.12-2.05,.18Z"/><path class="h" d="M226.39,418.91c-.33-.02-.66-.03-.99-.04,.11-.69,.22-1.38,.33-2.07,.22,.7,.44,1.41,.66,2.11Z"/><path class="m" d="M275.33,442.87c-.05,.15-.1,.3-.15,.44,.07-.13,.14-.26,.21-.39l-.06-.05Z"/><path class="h" d="M420.39,411.91c10.97,1.14,21.98,1.94,32.86,3.85,.08,9.16-3.85,14.02-12.74,16.4-3.97,1.07-7.93,.58-11.89,.77-1.96,.1-4.04-.38-5.64,1.29-8.92-.59-17.79-1.53-26.58-3.19-.63-5.35,1.97-8.66,6.59-10.98,4.31-2.16,8.94-3.35,13.43-4.98,1.7-.62,3.58-.96,3.97-3.18Z"/><path class="i" d="M452.32,439.88c-2.83,5.71-7.38,9.56-13.09,12.22-2.28,1.06-4.32,.58-5.99-.98-9.12-8.56-18.91-7.24-29.01-2.15-1.19,.6-2.39,1.16-3.56,1.8-9.11,5.03-10.81,4.38-13.22-5.53-1.09-4.48-3.26-8.74-3.01-13.52,22.63,2.72,45.25,5.44,67.88,8.16Z"/><path class="i" d="M420.39,411.91c-.39,2.23-2.27,2.56-3.97,3.18-4.49,1.63-9.12,2.82-13.43,4.98-4.61,2.32-7.22,5.62-6.59,10.98-2.3-.12-4.63-.06-6.91-.38-7.62-1.07-7.85-1.12-7.83-9.05,.01-5.21-1.17-10.56,.98-15.66,2.25,.04,4.5,.08,6.75,.12,3.91,1.38,8.35,.6,12.02,2.93,6.17,1.99,12.68,1.79,18.98,2.91Z"/><path class="i" d="M422.98,434.23c1.6-1.67,3.68-1.2,5.64-1.29,3.96-.19,7.92,.29,11.89-.77,8.89-2.39,12.82-7.25,12.74-16.4,4.06-.22,8.04,.43,12.03,1.02,.43,6.62-2.87,11.71-6.82,16.51-1.25,1.51-3.03,2.64-3.21,4.85-10.82-.76-21.57-2.12-32.27-3.91Z"/><path class="j" d="M362.35,426.95c-7.76-.42-15.45-1.41-23.07-2.87,1.91-2.89,5.3-3.7,7.93-5.59,4.77-3.43,7-8.45,9.18-13.57,3.44-.45,5.46,.65,4.97,4.52-.75,5.9,1.67,11.62,1,17.51Z"/><path class="r" d="M221.22,487.41c-.27-.61-.55-1.23-.82-1.84,10.97,1.63,21.94,3.26,32.91,4.9,3.67,.47,7.35,.93,11.02,1.4,3.53,1.29,7.25,1.57,10.95,1.89,10.05,1.64,20.11,3.27,30.16,4.91,3.66,.65,7.33,1.31,10.99,1.97,8.96,1.34,17.92,2.68,26.88,4.01,4.36,.74,8.73,1.47,13.09,2.21-.18,.79-.37,1.59-.55,2.37-16.48-3.68-33.25-5.59-49.89-8.31-11.74-1.92-23.48-3.86-35.23-5.73-1.78-.28-3.62-.2-5.44-.28-4.12-1.55-8.45-1.98-12.79-2.37-10.43-1.71-20.86-3.42-31.28-5.12Z"/><path class="n" d="M356.41,506.85c-4.36-.74-8.73-1.47-13.09-2.21,2.77-4.54,8.06-6.59,10.91-11.12,1.45-2.31,2.74-5.02,5.88-5.69-.81,6.42-1.13,12.94-3.7,19.02Z"/><path class="j" d="M306.26,274.29c-3.07,5.68-6.14,11.36-9.21,17.03-18.55-1.08-37.11-2.15-55.66-3.23l-.46-13.76c.11-.36,.23-.71,.34-1.07,.6-.73,1.21-1.46,1.81-2.19,21.06,1.07,42.11,2.14,63.16,3.22Z"/><path class="p" d="M240.94,274.33c.15,4.59,.3,9.18,.46,13.76-.64,.62-.88,1.26-.15,1.98l-.39,4.09c-6.56,.05-13.13,.1-19.69,.15-1.11-6.9-.6-13.86-.3-20.76,.21-4.77,4.6-8.35,9.41-8.64,4.92-.31,8.5,2.57,10.21,8.2,.16,.41,.31,.82,.47,1.23Z"/><path class="r" d="M306.26,274.29c-21.05-1.07-42.11-2.14-63.16-3.22,.28-.62,.56-1.24,.83-1.85,21.1,1.02,42.19,2.04,63.29,3.05,.03,.84-.21,1.55-.96,2.01Z"/><path class="i" d="M293.56,206.09c.97,4.72,1.95,9.43,2.92,14.15-5.39-.06-10.78-.12-16.18-.18,3.51-5.51,8.47-9.65,13.25-13.96Z"/><path class="d" d="M301.12,181.02c.69-.96,1.37-1.93,2.06-2.89,1.31,.68,2.64,1.31,4.19,1.15h-.02c1.34,2.84,1.49,5.96,2,8.99l.02-.02c-2.43,.34-4.72-.38-7.02-1h.01c-.42-2.07-.83-4.15-1.25-6.23Z"/><path class="n" d="M220.46,311.62c.61,4.15,.38,8.32,.19,12.49-2.47-.05-4.95-.1-7.42-.15,1.69-4.53,3.97-8.72,7.23-12.34Z"/><path class="r" d="M280.31,220.05c5.39,.06,10.78,.12,16.18,.18,.32,.66,.65,1.32,.97,1.97-6.4-.08-12.79-.16-19.19-.24,.68-.64,1.36-1.28,2.04-1.91Z"/><path class="r" d="M213.24,323.96c2.47,.05,4.95,.1,7.42,.15,.47,.75,.36,1.51,0,2.26-3.04-.17-6.09-.33-9.13-.5,.57-.64,1.14-1.28,1.7-1.91Z"/><path class="k" d="M301.12,181.02c.42,2.08,.83,4.17,1.25,6.25-2.11,.03-1.89-2.28-3.13-3.13,.14-1.34,.83-2.34,1.88-3.12Z"/><path class="k" d="M307.37,179.28c-1.55,.16-2.87-.47-4.19-1.15,.3-.33,.59-.66,.89-.99,1.44,.18,2.69,.66,3.3,2.14Z"/><path class="r" d="M240.94,274.33c-.16-.41-.31-.82-.47-1.23,.27,.07,.54,.12,.81,.16-.11,.36-.23,.71-.34,1.07Z"/><path class="p" d="M193.93,150.21c-4.8,2.05-5.24,4.59-3.19,9.57,3.64,8.86-4.26,15.61-13.23,15.25-4.4-.18-8.3-2.04-11.38-5.4-2.43-2.65-4.52-5.54-8.07-7.17-2.87-1.32-2.03-4.18-.79-6.51,3.81-7.17,14.2-11.16,21.84-8.34,2.3,.85,4.53,.76,6.85,.32,3.24-.61,4.07-.36,7.98,2.28Z"/><path class="k" d="M309.35,188.27c-.52-3.04-.67-6.15-2-9.01,1.78-.23,3.03,1.06,4.55,1.53,2.88,.91,5.86,1.44,5.76-3.63,.66,2.1,1.56,3.47,3.71,3.1-1.08,1.95-3.06,3.01-4.95,2.76-4.32-.57-6.15,1.57-7.07,5.25Z"/><path class="p" d="M313.85,171.69c.68,0,1.36,0,2.04,.01-.69,1.37-1.37,1.32-2.04-.01Z"/><path class="k" d="M322.36,179.26c-.34,.34-.68,.68-1.01,1.01,.34-.34,.68-.68,1.01-1.01Z"/><path class="k" d="M323.36,178.26c-.34,.34-.68,.68-1.02,1.02,.34-.34,.68-.68,1.02-1.02Z"/><path class="k" d="M386.35,186.25c-.65,.94,2.56,2.28-.5,3.16-2.69,.77-2.54,3.4-2.5,5.69-1.53-.17-1.27-1.79-2.07-2.55,1.5-2.25,1.58-5.65,5.07-6.3Z"/><path class="k" d="M302.35,187.25c2.3,.61,4.58,1.34,7.02,1-2.88,3.48-5.03,1.8-7.02-1Z"/><path class="k" d="M385.33,169.27c-.63,2.07,2.28,4.29-.26,6.23-.25,.19-1.29-.16-1.29-.22,.13-2.09,.43-4.16,1.58-5.99l-.03-.02Z"/><path class="k" d="M392.36,182.26c-.12,1.22-.76,1.92-2.02,2.01,.12-1.22,.75-1.93,2.02-2.01Z"/><path class="k" d="M389.36,185.26c-.79,.99-1.9,1.02-3.02,1.01,.78-1.02,1.89-1.04,3.02-1.01Z"/><polygon class="k" points="381.43 176.92 381.13 176.74 381.46 176.62 381.43 176.92"/><path class="k" d="M390.36,184.25c-.34,.34-.68,.68-1.02,1.02,.34-.34,.68-.68,1.02-1.02Z"/><path class="k" d="M389.82,191.37c.7,.95,.65,1.84,.05,2.8-.65-.95-.66-1.84-.05-2.8Z"/><path class="k" d="M397.34,193.24c-.67,.66-1.34,1.33-2,1.99l.02,.02c.09-1.25,.76-1.91,2-1.99l-.02-.02Z"/><path class="k" d="M387.32,198.82c.1-.78,.19-1.57,.29-2.35,.15,.06,.43,.16,.43,.17-.22,.74-.47,1.47-.71,2.2h-.01Z"/><path class="k" d="M395.34,195.24c.02,1.11,.01,2.22-1,2.99l.02,.02c0-1.11-.09-2.25,1-3l-.02-.02Z"/><path class="k" d="M392.34,200.23c-.51,.26-1.02,.53-1.53,.79l-.25-.56c.6-.07,1.19-.14,1.79-.22l-.02-.02Z"/><path class="k" d="M393.34,199.23c-.33,.33-.67,.67-1,1l.02,.02c.33-.33,.67-.66,1-1l-.02-.02Z"/><path class="k" d="M394.34,198.23c-.33,.33-.67,.67-1,1l.02,.02c.33-.33,.67-.67,1-1l-.02-.02Z"/><path class="p" d="M353.3,184.36c-1.51,1.66-3.49,.15-5.91,2.34,7.55-.34,14.18-.35,20.22,4.84-5.9,.87-6.23,3.94-4.94,8.26,1.57,5.29-1.9,10.81-7.2,12.23-8.61,2.31-17.31-2.24-20.3-10.71-.59-1.67-1.63-2.81-3-3.82-3.74-2.76-3.41-5.42-.15-8.55,6.16-5.91,13.62-4.78,21.29-4.59Z"/><path class="n" d="M314.56,322.02c-.09,3.03-.17,6.06-.26,9.09-11.08,.35-22.02-1.49-33.04-2.04,2.28-6.38,5.67-12.18,9.24-17.89,7.86,1.4,15.85,1.12,23.76,1.92,.1,2.98,.2,5.95,.3,8.93Z"/><path class="n" d="M291.43,309.84c2.09-6.02,5.6-11.28,8.89-16.67,4.69,.85,9.42,.97,14.17,1-.09,5.6-.19,11.21-.28,16.81-7.59-.38-15.19-.76-22.78-1.14Z"/><path class="r" d="M291.43,309.84c7.59,.38,15.19,.76,22.78,1.14,.02,.7,.03,1.41,.05,2.11-7.91-.8-15.9-.52-23.76-1.92,.31-.44,.62-.89,.93-1.33Z"/><path class="r" d="M314.49,294.17c-4.74-.02-9.48-.15-14.17-1,.32-.64,.64-1.29,.96-1.93,4.41,1.12,8.91,.88,13.39,.79,.42,.76,.25,1.46-.19,2.14Z"/><path class="n" d="M240.85,294.15c.13-1.36,.26-2.72,.39-4.08,18.28,1.07,36.56,2.13,54.84,3.19-3.38,5.13-5.13,11.16-8.95,16.05-15.35-1.06-30.7-2.12-46.05-3.18-.08-3.99-.15-7.99-.23-11.98Z"/><path class="m" d="M314.16,333.28c.03,6.54,.05,13.08,.08,19.62-1.16-.04-2.33-.02-3.48-.12-13.52-1.18-27.05-2.38-40.57-3.57,3.15-6.28,5.83-12.83,10.24-18.41,11.22,1.1,22.45,2.19,33.73,2.48Z"/><path class="n" d="M241.05,325.81c-.36-5.89-.27-11.78,.2-17.67,14.97,1.03,29.95,2.05,44.92,3.08-3.05,5.93-6.1,11.86-9.15,17.8-11.99-1.07-23.98-2.14-35.98-3.2Z"/><path class="m" d="M258.24,371.02c14.03,1.4,28.06,2.8,42.09,4.2-.38,2.68-2.68,3-4.62,3.85-7.72,3.36-15.2,7.17-22.36,11.61-1.21,.75-2.7,1.39-3.01,3.09-7.95-.93-15.89-1.85-23.84-2.78,3.62-6.82,6.92-13.84,11.73-19.96Z"/><path class="m" d="M241.21,347c-.62-6.32-.3-12.64-.11-18.96,6.11,.38,12.22,.69,18.32,1.18,5.43,.44,10.84,1.09,16.26,1.65-3.24,6.04-6.47,12.08-9.71,18.12-8.23-.94-16.47-1.88-24.77-1.99Z"/><path class="m" d="M240.96,367.03c0-5.92-.01-11.84-.02-17.75,8-.71,15.85,.82,23.75,1.58-3.22,6.04-6.45,12.08-9.67,18.12-4.61-1.22-9.51-.29-14.06-1.94Z"/><path class="r" d="M296.08,293.26c-18.28-1.06-36.56-2.13-54.84-3.19-.74-.72-.49-1.36,.15-1.98,18.55,1.08,37.11,2.15,55.66,3.23-.32,.65-.65,1.3-.97,1.94Z"/><path class="r" d="M286.17,311.22c-14.97-1.03-29.95-2.05-44.92-3.08-.58-.63-.8-1.28-.17-2.01,15.35,1.06,30.7,2.12,46.05,3.18,.04,.82-.28,1.46-.97,1.91Z"/><path class="r" d="M270.19,349.21c13.52,1.19,27.05,2.39,40.57,3.57,1.15,.1,2.32,.09,3.48,.12,.02,.72,.04,1.44,.05,2.16-15.01-1.36-30.01-2.71-45.02-4.07,.3-.59,.61-1.19,.92-1.78Z"/><path class="r" d="M275.69,330.87c-5.42-.56-10.83-1.21-16.26-1.65-6.1-.49-12.22-.79-18.32-1.18-.53-.73-.38-1.47-.06-2.23,11.99,1.07,23.99,2.14,35.98,3.2,.02,.95-.68,1.38-1.33,1.85Z"/><path class="r" d="M314.16,333.28c-11.28-.29-22.51-1.38-33.73-2.48,.28-.58,.55-1.16,.83-1.74,11.02,.56,21.96,2.39,33.04,2.04-.05,.72-.09,1.45-.14,2.17Z"/><path class="r" d="M264.69,350.85c-7.9-.76-15.75-2.29-23.75-1.58-.44-.82-.24-1.57,.28-2.27,8.3,.1,16.54,1.05,24.77,1.99,.03,.94-.65,1.39-1.3,1.87Z"/><path class="r" d="M240.96,367.03c4.55,1.65,9.46,.73,14.06,1.94-.04,.95-.77,1.38-1.42,1.85-4.23-.51-8.47-1.01-12.7-1.52-.33-.77-.46-1.53,.06-2.28Z"/><path class="j" d="M279.19,416.88c-5.35-.09-10.66-.54-15.85-1.96,1.14-6.51,2.58-12.85,8.96-16.57,.55-.32,.66-1.41,.98-2.15,7.78,.32,15.48,1.36,23.16,2.64-2.48,2.42-5.91,2.83-8.89,4.2-6.87,3.15-9.05,6.7-8.35,13.84Z"/><path class="h" d="M224.23,420c-.31,.21-.62,.43-.93,.64,.31-.22,.62-.43,.93-.64Z"/><path class="h" d="M225.21,419.03c-.26,.26-.51,.51-.76,.77,.26-.26,.51-.51,.76-.77Z"/><path class="h" d="M224.63,423.99c-.15-.78-.02-1.45,.71-1.9,.19,.79-.05,1.43-.71,1.9Z"/></g></g></svg>